<svg xmlns="http://www.w3.org/2000/svg" version="1.1" xmlns:xlink="http://www.w3.org/1999/xlink" xmlns:svgjs="http://svgjs.dev/svgjs" width="1000" height="1000" viewBox="0 0 1000 1000"><rect width="1000" height="1000" fill="#f7d65a"></rect><g transform="matrix(0.7,0,0,0.7,150,281.25)"><svg viewBox="0 0 512 320" data-background-color="#f7d65a" preserveAspectRatio="xMidYMid meet" height="625" width="1000" xmlns="http://www.w3.org/2000/svg" xmlns:xlink="http://www.w3.org/1999/xlink"><defs></defs><g id="tight-bounds" transform="matrix(1,0,0,1,0,0)"><svg viewBox="0 0 512 320" height="320" width="512"><g><svg></svg></g><g><svg viewBox="0 0 512 320" height="320" width="512"><g><path d="M96 320l0-320 320 0 0 320z" fill="#000000" data-fill-palette-color="tertiary"></path></g><g transform="matrix(1,0,0,1,172.83109504202366,80)"><svg viewBox="0 0 166.33780991595265 160" height="160" width="166.33780991595265"><g><svg viewBox="0 0 230.4 221.6212899437998" height="160" width="166.33780991595265"><g transform="matrix(1,0,0,1,0,152.03492792402753)"><svg viewBox="0 0 230.4 69.58636201977228" height="69.58636201977228" width="230.4"><g><svg viewBox="0 0 230.4 69.58636201977228" height="69.58636201977228" width="230.4"><g><rect width="23.039999999999992" height="3.901308757903482" y="59.57938036440189" fill="#000000" data-fill-palette-color="tertiary"></rect><rect width="23.039999999999992" height="3.901308757903482" y="59.57938036440189" x="207.36" fill="#000000" data-fill-palette-color="tertiary"></rect></g><g><svg viewBox="0 0 230.4 43.2608573153552" height="43.2608573153552" width="230.4"><g transform="matrix(1,0,0,1,0,0)"><svg width="230.4" viewBox="1.05 -35.1 248.42999999999998 46.650000000000006" height="43.2608573153552" data-palette-color="#ffffff"><path d="M8.05 0L1.05 0 1.05-1.1 2.05-1.4Q3-1.7 3.35-2.38 3.7-3.05 3.7-4.15L3.7-4.15 3.7-28.9Q3.7-29.9 3.45-30.53 3.2-31.15 2.2-31.5L2.2-31.5 1.05-31.95 1.05-33.05 10.6-33.05 20-8.6 28.85-33.05 38.6-33.05 38.6-31.95 37.8-31.7Q36.85-31.4 36.5-30.78 36.15-30.15 36.15-29.15L36.15-29.15Q36.1-26.25 36.1-23.38 36.1-20.5 36.1-17.55L36.1-17.55 36.1-15.5Q36.1-12.6 36.1-9.7 36.1-6.8 36.15-3.95L36.15-3.95Q36.15-2.9 36.4-2.35 36.65-1.8 37.6-1.45L37.6-1.45 38.6-1.1 38.6 0 26.45 0 26.45-1.1 27.55-1.45Q28.5-1.8 28.73-2.38 28.95-2.95 28.95-3.95L28.95-3.95 28.95-14.8 29.05-28.2 18.85 0 16.05 0 5.3-27.9 5.5-16.5 5.5-4.1Q5.5-3 5.8-2.35 6.1-1.7 7.05-1.45L7.05-1.45 8.05-1.1 8.05 0ZM46.6-27.5L46.6-27.5Q44.95-27.5 43.8-28.55 42.65-29.6 42.65-31.2L42.65-31.2Q42.65-32.85 43.8-33.88 44.95-34.9 46.6-34.9L46.6-34.9Q48.25-34.9 49.4-33.88 50.55-32.85 50.55-31.2L50.55-31.2Q50.55-29.6 49.4-28.55 48.25-27.5 46.6-27.5ZM52.3 0L40.85 0 40.85-0.95 41.6-1.15Q42.6-1.45 42.95-2.05 43.3-2.65 43.35-3.65L43.35-3.65 43.35-12.85Q43.35-14.4 43.35-15.73 43.35-17.05 43.3-18.45L43.3-18.45Q43.3-19.45 42.92-20.03 42.55-20.6 41.55-20.8L41.55-20.8 40.85-20.95 40.85-21.85 49.6-24.75 50.2-24.2 50.05-17.1 50.05-3.6Q50.05-2.6 50.42-2 50.8-1.4 51.75-1.1L51.75-1.1 52.3-0.95 52.3 0ZM65 0.7L65 0.7Q62.05 0.7 59.7-0.63 57.35-1.95 56.02-4.73 54.7-7.5 54.7-11.8L54.7-11.8Q54.7-16.1 56.2-18.98 57.7-21.85 60.2-23.3 62.7-24.75 65.7-24.75L65.7-24.75Q67.5-24.75 69.15-24.33 70.8-23.9 72.05-23.05L72.05-23.05 72.05-29.55Q72.05-30.6 71.72-31.08 71.4-31.55 70.4-31.8L70.4-31.8 69.4-32 69.4-32.95 78.1-35.1 78.75-34.65 78.55-27.6 78.55-3.55Q78.55-2.6 78.9-1.98 79.25-1.35 80.15-1.1L80.15-1.1 80.7-0.95 80.7 0 72.4 0.55 71.95-1.55Q70.6-0.5 68.85 0.1 67.1 0.7 65 0.7ZM67.75-1.6L67.75-1.6Q69.9-1.6 71.8-3L71.8-3 71.8-21.6Q69.95-22.75 67.8-22.75L67.8-22.75Q65.35-22.75 63.6-20.18 61.85-17.6 61.85-11.9L61.85-11.9Q61.85-6.2 63.5-3.9 65.15-1.6 67.75-1.6ZM90.19 0.7L90.19 0.7Q87.34 0.7 85.37-0.93 83.39-2.55 83.39-5.6L83.39-5.6Q83.39-8 85.72-10.03 88.04-12.05 93.04-13L93.04-13Q93.89-13.2 95.02-13.38 96.14-13.55 97.24-13.75L97.24-13.75 97.24-17.3Q97.24-20.7 96.39-22 95.54-23.3 93.69-23.3L93.69-23.3 93.54-23.3Q92.39-23.3 91.72-22.58 91.04-21.85 90.84-20.2L90.84-20.2 90.69-19.55Q90.54-17.55 89.64-16.63 88.74-15.7 87.39-15.7L87.39-15.7Q86.14-15.7 85.32-16.48 84.49-17.25 84.49-18.5L84.49-18.5Q84.49-20.55 85.89-21.95 87.29-23.35 89.62-24.05 91.94-24.75 94.64-24.75L94.64-24.75Q99.09-24.75 101.44-22.6 103.79-20.45 103.79-15.6L103.79-15.6 103.79-4.45Q103.79-2.3 105.84-2.3L105.84-2.3 106.99-2.3 107.49-1.75Q106.59-0.6 105.49 0.03 104.39 0.65 102.49 0.65L102.49 0.65Q100.34 0.65 99.07-0.38 97.79-1.4 97.39-3.1L97.39-3.1Q95.79-1.4 94.24-0.35 92.69 0.7 90.19 0.7ZM93.09-2.5L93.09-2.5Q94.09-2.5 94.99-2.95 95.89-3.4 97.24-4.45L97.24-4.45 97.24-12.45Q95.94-12.25 94.59-11.95L94.59-11.95Q92.44-11.45 91.12-10.1 89.79-8.75 89.79-6.45L89.79-6.45Q89.79-4.45 90.72-3.48 91.64-2.5 93.09-2.5ZM117.29 0.7L117.29 0.7Q114.89 0.7 112.97 0.18 111.04-0.35 109.29-1.3L109.29-1.3 109.29-7.2 110.64-7.2 112.14-4.35Q113.09-2.5 114.32-1.6 115.54-0.7 117.44-0.7L117.44-0.7Q119.79-0.7 121.19-1.73 122.59-2.75 122.59-4.5L122.59-4.5Q122.59-6.1 121.54-7.1 120.49-8.1 117.79-8.95L117.79-8.95 115.59-9.65Q112.64-10.55 110.92-12.38 109.19-14.2 109.19-16.95L109.19-16.95Q109.19-19.1 110.34-20.88 111.49-22.65 113.69-23.7 115.89-24.75 119.04-24.75L119.04-24.75Q121.09-24.75 122.82-24.28 124.54-23.8 126.19-22.95L126.19-22.95 125.89-17.6 124.59-17.6 123.04-20.45Q122.24-22.05 121.42-22.68 120.59-23.3 118.89-23.3L118.89-23.3Q117.09-23.3 115.72-22.38 114.34-21.45 114.34-19.8L114.34-19.8Q114.34-18.25 115.49-17.28 116.64-16.3 119.19-15.45L119.19-15.45 121.34-14.8Q124.99-13.65 126.54-11.75 128.09-9.85 128.09-7.2L128.09-7.2Q128.09-3.65 125.27-1.48 122.44 0.7 117.29 0.7ZM152.14 0.85L152.14 0.85Q149.39 0.85 146.56 0.18 143.74-0.5 141.84-1.6L141.84-1.6 142.14-8.55 143.59-8.55 145.14-5.1Q145.84-3.65 146.59-2.7 147.34-1.75 148.59-1.25L148.59-1.25Q149.44-0.9 150.21-0.78 150.99-0.65 151.94-0.65L151.94-0.65Q154.99-0.65 156.76-2.23 158.54-3.8 158.54-6.4L158.54-6.4Q158.54-8.75 157.31-10.1 156.09-11.45 153.39-12.7L153.39-12.7 151.34-13.6Q147.14-15.45 144.71-17.9 142.29-20.35 142.29-24.4L142.29-24.4Q142.29-27.4 143.81-29.53 145.34-31.65 148.04-32.8 150.74-33.95 154.34-33.95L154.34-33.95Q156.99-33.95 159.31-33.25 161.64-32.55 163.39-31.35L163.39-31.35 163.04-25.15 161.59-25.15 159.74-28.9Q158.94-30.55 158.21-31.28 157.49-32 156.44-32.2L156.44-32.2Q155.84-32.3 155.41-32.35 154.99-32.4 154.29-32.4L154.29-32.4Q151.84-32.4 150.06-30.98 148.29-29.55 148.29-27.05L148.29-27.05Q148.29-24.65 149.64-23.15 150.99-21.65 153.54-20.5L153.54-20.5 155.79-19.55Q160.64-17.45 162.74-15.08 164.84-12.7 164.84-9L164.84-9Q164.84-4.6 161.51-1.88 158.19 0.85 152.14 0.85ZM178.83 0L167.43 0 167.43-1 168.08-1.2Q169.88-1.75 169.88-3.7L169.88-3.7 169.88-29.45Q169.88-30.5 169.53-31.03 169.18-31.55 168.18-31.8L168.18-31.8 167.43-32 167.43-32.95 175.88-35.1 176.68-34.65 176.48-27.6 176.48-21.2Q178.23-22.65 180.31-23.7 182.38-24.75 184.78-24.75L184.78-24.75Q188.08-24.75 189.96-22.9 191.83-21.05 191.83-17.2L191.83-17.2 191.83-3.65Q191.83-2.65 192.23-2.05 192.63-1.45 193.63-1.15L193.63-1.15 194.08-1 194.08 0 182.68 0 182.68-1 183.28-1.2Q185.08-1.7 185.08-3.7L185.08-3.7 185.08-18.15Q185.08-20.2 184.38-21 183.68-21.8 181.93-21.8L181.93-21.8Q180.73-21.8 179.41-21.35 178.08-20.9 176.63-19.85L176.63-19.85 176.63-3.6Q176.63-2.6 177.03-2 177.43-1.4 178.38-1.15L178.38-1.15 178.83-1 178.83 0ZM208.58 0.7L208.58 0.7Q204.88 0.7 202.11-0.85 199.33-2.4 197.81-5.25 196.28-8.1 196.28-12.05L196.28-12.05Q196.28-16 197.91-18.85 199.53-21.7 202.31-23.23 205.08-24.75 208.58-24.75L208.58-24.75Q212.08-24.75 214.86-23.23 217.63-21.7 219.26-18.88 220.88-16.05 220.88-12.05L220.88-12.05Q220.88-8.1 219.36-5.23 217.83-2.35 215.08-0.83 212.33 0.7 208.58 0.7ZM208.58-0.7L208.58-0.7Q210.38-0.7 211.51-1.68 212.63-2.65 213.13-5.1 213.63-7.55 213.63-11.95L213.63-11.95Q213.63-16.4 213.13-18.88 212.63-21.35 211.51-22.33 210.38-23.3 208.58-23.3L208.58-23.3Q206.78-23.3 205.68-22.33 204.58-21.35 204.06-18.88 203.53-16.4 203.53-11.95L203.53-11.95Q203.53-7.55 204.06-5.1 204.58-2.65 205.68-1.68 206.78-0.7 208.58-0.7ZM234.98 11.55L223.18 11.55 223.18 10.6 223.83 10.4Q224.83 10.15 225.23 9.58 225.63 9 225.63 7.95L225.63 7.95Q225.63 5.9 225.65 4.08 225.68 2.25 225.68 0.55L225.68 0.55 225.68-13.2Q225.68-14.75 225.68-15.88 225.68-17 225.63-18.4L225.63-18.4Q225.63-19.45 225.28-20.03 224.93-20.6 223.93-20.8L223.93-20.8 223.18-20.95 223.18-21.85 231.23-24.75 231.83-24.25 232.28-22.4Q235.73-24.75 240.08-24.75L240.08-24.75Q244.33-24.75 246.9-21.55 249.48-18.35 249.48-12.1L249.48-12.1Q249.48-6.05 246.65-2.68 243.83 0.7 238.98 0.7L238.98 0.7Q237.03 0.7 235.3 0.35 233.58 0 232.23-0.7L232.23-0.7 232.23 0.8Q232.23 2.3 232.25 4.05 232.28 5.8 232.28 7.85L232.28 7.85Q232.28 9.85 234.03 10.35L234.03 10.35 234.98 10.6 234.98 11.55ZM236.63-1.3L236.63-1.3Q239.28-1.3 240.8-3.68 242.33-6.05 242.33-11.9L242.33-11.9Q242.33-17.7 240.88-20.03 239.43-22.35 236.78-22.35L236.78-22.35Q235.83-22.35 234.73-22.05 233.63-21.75 232.38-21.05L232.38-21.05 232.38-2.15Q234.38-1.3 236.63-1.3Z" opacity="1" transform="matrix(1,0,0,1,0,0)" fill="#ffffff" class="undefined-text-0" data-fill-palette-color="quaternary" id="text-0"></path></svg></g></svg></g><g transform="matrix(1,0,0,1,23.039999999999992,53.473707466935)"><svg viewBox="0 0 184.32000000000002 16.112654552837277" height="16.112654552837277" width="184.32000000000002"><g transform="matrix(1,0,0,1,8,0)"><svg width="168.32000000000002" viewBox="1.15 -35.1 492.5 47.150000000000006" height="16.112654552837277" data-palette-color="#ffffff"><path d="M13.7 0L1.15 0 1.15-1.05 2.2-1.35Q3.2-1.65 3.48-2.23 3.75-2.8 3.75-3.85L3.75-3.85Q3.8-6.75 3.8-9.65 3.8-12.55 3.8-15.5L3.8-15.5 3.8-17.55Q3.8-20.45 3.8-23.35 3.8-26.25 3.75-29.15L3.75-29.15Q3.75-30.2 3.5-30.78 3.25-31.35 2.25-31.65L2.25-31.65 1.15-32 1.15-33.05 15.15-33.05Q21-33.05 24.18-30.83 27.35-28.6 27.35-24.6L27.35-24.6Q27.35-22.4 25.63-20.15 23.9-17.9 20.35-16.7L20.35-16.7 27.15-3.45Q28-1.8 29.8-1.2L29.8-1.2 30.75-1 30.75 0 21.9 0 14.45-15.6 10.85-15.6Q10.85-12.05 10.85-9.2 10.85-6.35 10.9-3.85L10.9-3.85Q10.9-2.85 11.23-2.25 11.55-1.65 12.5-1.4L12.5-1.4 13.7-1.05 13.7 0ZM10.85-17.05L10.85-17.05 13.55-17.05Q17.1-17.05 18.75-18.85 20.4-20.65 20.4-24.35L20.4-24.35Q20.4-28.05 18.82-29.83 17.25-31.6 13.75-31.6L13.75-31.6 10.9-31.6Q10.9-29.65 10.88-27.63 10.85-25.6 10.85-23.08 10.85-20.55 10.85-17.05ZM44.8-24.75L44.8-24.75Q47.95-24.75 50.2-23.45 52.45-22.15 53.67-19.88 54.9-17.6 54.9-14.65L54.9-14.65Q54.9-14 54.85-13.43 54.8-12.85 54.65-12.35L54.65-12.35 39.6-12.35Q39.65-7.2 41.52-4.95 43.4-2.7 47-2.7L47-2.7Q49.5-2.7 51.05-3.53 52.6-4.35 53.9-5.85L53.9-5.85 54.7-5.1Q53.2-2.35 50.62-0.83 48.05 0.7 44.5 0.7L44.5 0.7Q40.95 0.7 38.25-0.8 35.55-2.3 34.02-5.13 32.5-7.95 32.5-11.9L32.5-11.9Q32.5-16 34.27-18.85 36.05-21.7 38.87-23.23 41.7-24.75 44.8-24.75ZM44.55-23.3L44.55-23.3Q43.1-23.3 42.02-22.48 40.95-21.65 40.32-19.58 39.7-17.5 39.6-13.75L39.6-13.75 48.55-13.75Q49.1-18.8 48.15-21.05 47.2-23.3 44.55-23.3ZM64.7 0.7L64.7 0.7Q61.85 0.7 59.87-0.93 57.9-2.55 57.9-5.6L57.9-5.6Q57.9-8 60.22-10.03 62.55-12.05 67.55-13L67.55-13Q68.4-13.2 69.52-13.38 70.65-13.55 71.75-13.75L71.75-13.75 71.75-17.3Q71.75-20.7 70.9-22 70.05-23.3 68.2-23.3L68.2-23.3 68.05-23.3Q66.9-23.3 66.22-22.58 65.55-21.85 65.34-20.2L65.34-20.2 65.2-19.55Q65.05-17.55 64.15-16.63 63.25-15.7 61.9-15.7L61.9-15.7Q60.65-15.7 59.82-16.48 59-17.25 59-18.5L59-18.5Q59-20.55 60.4-21.95 61.8-23.35 64.12-24.05 66.45-24.75 69.15-24.75L69.15-24.75Q73.59-24.75 75.95-22.6 78.3-20.45 78.3-15.6L78.3-15.6 78.3-4.45Q78.3-2.3 80.34-2.3L80.34-2.3 81.5-2.3 82-1.75Q81.09-0.6 80 0.03 78.9 0.65 77 0.65L77 0.65Q74.84 0.65 73.57-0.38 72.3-1.4 71.9-3.1L71.9-3.1Q70.3-1.4 68.75-0.35 67.2 0.7 64.7 0.7ZM67.59-2.5L67.59-2.5Q68.59-2.5 69.5-2.95 70.4-3.4 71.75-4.45L71.75-4.45 71.75-12.45Q70.45-12.25 69.09-11.95L69.09-11.95Q66.95-11.45 65.62-10.1 64.3-8.75 64.3-6.45L64.3-6.45Q64.3-4.45 65.22-3.48 66.15-2.5 67.59-2.5ZM93.64 0.7L93.64 0.7Q90.69 0.7 88.34-0.63 85.99-1.95 84.67-4.73 83.34-7.5 83.34-11.8L83.34-11.8Q83.34-16.1 84.84-18.98 86.34-21.85 88.84-23.3 91.34-24.75 94.34-24.75L94.34-24.75Q96.14-24.75 97.79-24.33 99.44-23.9 100.69-23.05L100.69-23.05 100.69-29.55Q100.69-30.6 100.37-31.08 100.04-31.55 99.04-31.8L99.04-31.8 98.04-32 98.04-32.95 106.74-35.1 107.39-34.65 107.19-27.6 107.19-3.55Q107.19-2.6 107.54-1.98 107.89-1.35 108.79-1.1L108.79-1.1 109.34-0.95 109.34 0 101.04 0.55 100.59-1.55Q99.24-0.5 97.49 0.1 95.74 0.7 93.64 0.7ZM96.39-1.6L96.39-1.6Q98.54-1.6 100.44-3L100.44-3 100.44-21.6Q98.59-22.75 96.44-22.75L96.44-22.75Q93.99-22.75 92.24-20.18 90.49-17.6 90.49-11.9L90.49-11.9Q90.49-6.2 92.14-3.9 93.79-1.6 96.39-1.6ZM134.04 0L122.59 0 122.59-1 123.69-1.3Q124.49-1.55 124.74-2.02 124.99-2.5 125.04-3.3L125.04-3.3 125.04-13.2Q125.04-14.85 125.04-16 125.04-17.15 124.99-18.7L124.99-18.7Q124.99-19.55 124.74-20.03 124.49-20.5 123.64-20.7L123.64-20.7 122.59-20.95 122.59-21.85 130.69-24.75 131.29-24.2 131.64-20.85Q133.39-22.45 135.54-23.6 137.69-24.75 139.94-24.75L139.94-24.75Q142.44-24.75 143.84-23.75 145.24-22.75 145.99-20.7L145.99-20.7Q147.89-22.6 150.19-23.68 152.49-24.75 154.74-24.75L154.74-24.75Q158.14-24.75 159.84-23.05 161.54-21.35 161.54-17.7L161.54-17.7 161.54-3.25Q161.54-1.65 162.94-1.25L162.94-1.25 163.89-1 163.89 0 152.64 0 152.64-1 153.54-1.25Q154.89-1.7 154.89-3.3L154.89-3.3 154.89-17.95Q154.89-20.1 154.11-20.88 153.34-21.65 151.59-21.65L151.59-21.65Q150.24-21.65 149.04-21.1 147.84-20.55 146.39-19.4L146.39-19.4Q146.69-17.9 146.69-15.95L146.69-15.95 146.69-3.25Q146.74-2.4 147.01-1.93 147.29-1.45 148.09-1.25L148.09-1.25 148.94-1 148.94 0 137.64 0 137.64-1 138.69-1.3Q139.49-1.55 139.76-2.02 140.04-2.5 140.04-3.3L140.04-3.3 140.04-17.9Q140.04-19.95 139.29-20.8 138.54-21.65 136.74-21.65L136.74-21.65Q134.44-21.65 131.79-19.45L131.79-19.45 131.79-3.25Q131.79-1.6 133.19-1.25L133.19-1.25 134.04-1 134.04 0ZM178.44 0.7L178.44 0.7Q174.74 0.7 171.96-0.85 169.19-2.4 167.66-5.25 166.14-8.1 166.14-12.05L166.14-12.05Q166.14-16 167.76-18.85 169.39-21.7 172.16-23.23 174.94-24.75 178.44-24.75L178.44-24.75Q181.94-24.75 184.71-23.23 187.49-21.7 189.11-18.88 190.74-16.05 190.74-12.05L190.74-12.05Q190.74-8.1 189.21-5.23 187.69-2.35 184.94-0.83 182.19 0.7 178.44 0.7ZM178.44-0.7L178.44-0.7Q180.24-0.7 181.36-1.68 182.49-2.65 182.99-5.1 183.49-7.55 183.49-11.95L183.49-11.95Q183.49-16.4 182.99-18.88 182.49-21.35 181.36-22.33 180.24-23.3 178.44-23.3L178.44-23.3Q176.64-23.3 175.54-22.33 174.44-21.35 173.91-18.88 173.39-16.4 173.39-11.95L173.39-11.95Q173.39-7.55 173.91-5.1 174.44-2.65 175.54-1.68 176.64-0.7 178.44-0.7ZM205.53 0L193.03 0 193.03-0.95 193.78-1.2Q194.78-1.45 195.16-2.05 195.53-2.65 195.53-3.65L195.53-3.65 195.53-18.3Q195.48-19.4 195.13-19.98 194.78-20.55 193.78-20.75L193.78-20.75 193.03-20.95 193.03-21.85 201.18-24.75 201.78-24.2 202.23-19.8 202.23-19.45Q202.98-20.85 204.13-22.05 205.28-23.25 206.63-24 207.98-24.75 209.33-24.75L209.33-24.75Q211.23-24.75 212.18-23.75 213.13-22.75 213.13-21.2L213.13-21.2Q213.13-19.5 212.18-18.63 211.23-17.75 209.88-17.75L209.88-17.75Q207.88-17.75 206.43-19.55L206.43-19.55 206.33-19.65Q205.83-20.25 205.21-20.33 204.58-20.4 203.98-19.7L203.98-19.7Q203.48-19.2 203.06-18.53 202.63-17.85 202.28-16.95L202.28-16.95 202.28-3.85Q202.28-2.9 202.68-2.27 203.08-1.65 204.03-1.4L204.03-1.4 205.53-0.95 205.53 0ZM227.28-24.75L227.28-24.75Q230.43-24.75 232.68-23.45 234.93-22.15 236.16-19.88 237.38-17.6 237.38-14.65L237.38-14.65Q237.38-14 237.33-13.43 237.28-12.85 237.13-12.35L237.13-12.35 222.08-12.35Q222.13-7.2 224.01-4.95 225.88-2.7 229.48-2.7L229.48-2.7Q231.98-2.7 233.53-3.53 235.08-4.35 236.38-5.85L236.38-5.85 237.18-5.1Q235.68-2.35 233.11-0.83 230.53 0.7 226.98 0.7L226.98 0.7Q223.43 0.7 220.73-0.8 218.03-2.3 216.51-5.13 214.98-7.95 214.98-11.9L214.98-11.9Q214.98-16 216.76-18.85 218.53-21.7 221.36-23.23 224.18-24.75 227.28-24.75ZM227.03-23.3L227.03-23.3Q225.58-23.3 224.51-22.48 223.43-21.65 222.81-19.58 222.18-17.5 222.08-13.75L222.08-13.75 231.03-13.75Q231.58-18.8 230.63-21.05 229.68-23.3 227.03-23.3ZM243.28 7.95L243.28 7.95 242.83 6.9Q245.93 4.95 246.68 1.05L246.68 1.05 245.13 0.3Q243.68-0.4 242.93-1.48 242.18-2.55 242.18-3.7L242.18-3.7Q242.18-5.35 243.3-6.5 244.43-7.65 246.23-7.65L246.23-7.65Q248.08-7.65 249.23-6.35 250.38-5.05 250.38-2.6L250.38-2.6Q250.38 0.1 249.3 2.25 248.23 4.4 246.6 5.85 244.98 7.3 243.28 7.95ZM278.92 0.15L276.12 0.15 268.47-20.65Q268.17-21.55 267.65-22.03 267.12-22.5 266.27-22.8L266.27-22.8 265.42-23.05 265.42-24 277.37-24 277.37-23.05 276.57-22.85Q274.67-22.35 275.32-20.45L275.32-20.45 279.87-6.85 284.07-18 283.32-20.25Q282.97-21.3 282.6-21.9 282.22-22.5 281.52-22.75L281.52-22.75 280.67-23.05 280.67-24 290.97-24 290.97-23.05 290.27-22.8Q289.47-22.5 289.3-21.98 289.12-21.45 289.47-20.45L289.47-20.45 293.92-7.15 298.42-20.4Q299.02-22.35 297.52-22.75L297.52-22.75 296.52-23.05 296.52-24 303.22-24 303.22-23.05 302.12-22.75Q301.27-22.5 300.82-22 300.37-21.5 300.07-20.6L300.07-20.6 292.87 0.15 290.27 0.15 284.82-15.8 278.92 0.15ZM317.42 0.7L317.42 0.7Q313.72 0.7 310.94-0.85 308.17-2.4 306.64-5.25 305.12-8.1 305.12-12.05L305.12-12.05Q305.12-16 306.75-18.85 308.37-21.7 311.14-23.23 313.92-24.75 317.42-24.75L317.42-24.75Q320.92-24.75 323.69-23.23 326.47-21.7 328.1-18.88 329.72-16.05 329.72-12.05L329.72-12.05Q329.72-8.1 328.19-5.23 326.67-2.35 323.92-0.83 321.17 0.7 317.42 0.7ZM317.42-0.7L317.42-0.7Q319.22-0.7 320.35-1.68 321.47-2.65 321.97-5.1 322.47-7.55 322.47-11.95L322.47-11.95Q322.47-16.4 321.97-18.88 321.47-21.35 320.35-22.33 319.22-23.3 317.42-23.3L317.42-23.3Q315.62-23.3 314.52-22.33 313.42-21.35 312.89-18.88 312.37-16.4 312.37-11.95L312.37-11.95Q312.37-7.55 312.89-5.1 313.42-2.65 314.52-1.68 315.62-0.7 317.42-0.7ZM344.52 0L332.02 0 332.02-0.95 332.77-1.2Q333.77-1.45 334.14-2.05 334.52-2.65 334.52-3.65L334.52-3.65 334.52-18.3Q334.47-19.4 334.12-19.98 333.77-20.55 332.77-20.75L332.77-20.75 332.02-20.95 332.02-21.85 340.17-24.75 340.77-24.2 341.22-19.8 341.22-19.45Q341.97-20.85 343.12-22.05 344.27-23.25 345.62-24 346.97-24.75 348.32-24.75L348.32-24.75Q350.22-24.75 351.17-23.75 352.12-22.75 352.12-21.2L352.12-21.2Q352.12-19.5 351.17-18.63 350.22-17.75 348.87-17.75L348.87-17.75Q346.87-17.75 345.42-19.55L345.42-19.55 345.32-19.65Q344.82-20.25 344.19-20.33 343.57-20.4 342.97-19.7L342.97-19.7Q342.47-19.2 342.04-18.53 341.62-17.85 341.27-16.95L341.27-16.95 341.27-3.85Q341.27-2.9 341.67-2.27 342.07-1.65 343.02-1.4L343.02-1.4 344.52-0.95 344.52 0ZM366.27 0L353.77 0 353.77-0.95 354.52-1.2Q355.52-1.45 355.89-2.05 356.27-2.65 356.27-3.65L356.27-3.65 356.27-18.3Q356.22-19.4 355.87-19.98 355.52-20.55 354.52-20.75L354.52-20.75 353.77-20.95 353.77-21.85 361.92-24.75 362.52-24.2 362.97-19.8 362.97-19.45Q363.72-20.85 364.87-22.05 366.02-23.25 367.37-24 368.72-24.75 370.07-24.75L370.07-24.75Q371.97-24.75 372.92-23.75 373.87-22.75 373.87-21.2L373.87-21.2Q373.87-19.5 372.92-18.63 371.97-17.75 370.62-17.75L370.62-17.75Q368.62-17.75 367.17-19.55L367.17-19.55 367.07-19.65Q366.57-20.25 365.94-20.33 365.32-20.4 364.72-19.7L364.72-19.7Q364.22-19.2 363.79-18.53 363.37-17.85 363.02-16.95L363.02-16.95 363.02-3.85Q363.02-2.9 363.42-2.27 363.82-1.65 364.77-1.4L364.77-1.4 366.27-0.95 366.27 0ZM379.91 12.05L379.91 12.05Q377.91 12.05 376.76 11.1 375.61 10.15 375.61 8.6L375.61 8.6Q375.61 7.2 376.59 6.38 377.56 5.55 378.76 5.55L378.76 5.55Q380.01 5.55 380.81 6 381.61 6.45 382.21 7.3L382.21 7.3 382.51 7.7Q383.66 9.1 384.66 7.65L384.66 7.65Q385.31 6.8 385.94 5.55 386.56 4.3 387.31 2.25L387.31 2.25 377.81-20.45Q377.46-21.4 377.01-21.93 376.56-22.45 375.66-22.8L375.66-22.8 374.81-23.1 374.81-24 387.16-24 387.16-23.1 386.11-22.8Q385.01-22.45 384.94-21.73 384.86-21 385.26-19.85L385.26-19.85 390.36-6.55 395.26-19.95Q395.66-21.05 395.56-21.8 395.46-22.55 394.31-22.8L394.31-22.8 393.21-23.1 393.21-24 400.66-24 400.66-23.1 399.56-22.75Q398.46-22.45 397.99-21.88 397.51-21.3 397.11-20.2L397.11-20.2 389.11 1.3Q387.11 6.8 385.04 9.43 382.96 12.05 379.91 12.05ZM425.06 0L413.41 0 413.41-0.95 414.16-1.15Q415.81-1.7 415.81-3.65L415.81-3.65Q415.81-5.35 415.83-7.08 415.86-8.8 415.86-10.5L415.86-10.5 415.86-29.5Q415.86-30.55 415.51-31.08 415.16-31.6 414.16-31.85L414.16-31.85 413.41-32.05 413.41-33 422.16-35.1 422.81-34.65 422.61-27.6 422.61-3.65Q422.66-2.65 423.03-2.02 423.41-1.4 424.36-1.15L424.36-1.15 425.06-0.95 425.06 0ZM439.81-24.75L439.81-24.75Q442.96-24.75 445.21-23.45 447.46-22.15 448.68-19.88 449.91-17.6 449.91-14.65L449.91-14.65Q449.91-14 449.86-13.43 449.81-12.85 449.66-12.35L449.66-12.35 434.61-12.35Q434.66-7.2 436.53-4.95 438.41-2.7 442.01-2.7L442.01-2.7Q444.51-2.7 446.06-3.53 447.61-4.35 448.91-5.85L448.91-5.85 449.71-5.1Q448.21-2.35 445.63-0.83 443.06 0.7 439.51 0.7L439.51 0.7Q435.96 0.7 433.26-0.8 430.56-2.3 429.03-5.13 427.51-7.95 427.51-11.9L427.51-11.9Q427.51-16 429.28-18.85 431.06-21.7 433.88-23.23 436.71-24.75 439.81-24.75ZM439.56-23.3L439.56-23.3Q438.11-23.3 437.03-22.48 435.96-21.65 435.33-19.58 434.71-17.5 434.61-13.75L434.61-13.75 443.56-13.75Q444.11-18.8 443.16-21.05 442.21-23.3 439.56-23.3ZM461.1 0.7L461.1 0.7Q458.7 0.7 456.78 0.18 454.85-0.35 453.1-1.3L453.1-1.3 453.1-7.2 454.45-7.2 455.95-4.35Q456.9-2.5 458.13-1.6 459.35-0.7 461.25-0.7L461.25-0.7Q463.6-0.7 465-1.73 466.4-2.75 466.4-4.5L466.4-4.5Q466.4-6.1 465.35-7.1 464.3-8.1 461.6-8.95L461.6-8.95 459.4-9.65Q456.45-10.55 454.73-12.38 453-14.2 453-16.95L453-16.95Q453-19.1 454.15-20.88 455.3-22.65 457.5-23.7 459.7-24.75 462.85-24.75L462.85-24.75Q464.9-24.75 466.63-24.28 468.35-23.8 470-22.95L470-22.95 469.7-17.6 468.4-17.6 466.85-20.45Q466.05-22.05 465.23-22.68 464.4-23.3 462.7-23.3L462.7-23.3Q460.9-23.3 459.53-22.38 458.15-21.45 458.15-19.8L458.15-19.8Q458.15-18.25 459.3-17.28 460.45-16.3 463-15.45L463-15.45 465.15-14.8Q468.8-13.65 470.35-11.75 471.9-9.85 471.9-7.2L471.9-7.2Q471.9-3.65 469.08-1.48 466.25 0.7 461.1 0.7ZM482.85 0.7L482.85 0.7Q480.45 0.7 478.53 0.18 476.6-0.35 474.85-1.3L474.85-1.3 474.85-7.2 476.2-7.2 477.7-4.35Q478.65-2.5 479.88-1.6 481.1-0.7 483-0.7L483-0.7Q485.35-0.7 486.75-1.73 488.15-2.75 488.15-4.5L488.15-4.5Q488.15-6.1 487.1-7.1 486.05-8.1 483.35-8.95L483.35-8.95 481.15-9.65Q478.2-10.55 476.48-12.38 474.75-14.2 474.75-16.95L474.75-16.95Q474.75-19.1 475.9-20.88 477.05-22.65 479.25-23.7 481.45-24.75 484.6-24.75L484.6-24.75Q486.65-24.75 488.38-24.28 490.1-23.8 491.75-22.95L491.75-22.95 491.45-17.6 490.15-17.6 488.6-20.45Q487.8-22.05 486.98-22.68 486.15-23.3 484.45-23.3L484.45-23.3Q482.65-23.3 481.28-22.38 479.9-21.45 479.9-19.8L479.9-19.8Q479.9-18.25 481.05-17.28 482.2-16.3 484.75-15.45L484.75-15.45 486.9-14.8Q490.55-13.65 492.1-11.75 493.65-9.85 493.65-7.2L493.65-7.2Q493.65-3.65 490.83-1.48 488 0.7 482.85 0.7Z" opacity="1" transform="matrix(1,0,0,1,0,0)" fill="#ffffff" class="undefined-text-1" data-fill-palette-color="quaternary" id="text-1"></path></svg></g></svg></g></svg></g></svg></g><g transform="matrix(1,0,0,1,49.39538618956604,0)"><svg viewBox="0 0 131.60922762086793 131.60922762086793" height="131.60922762086793" width="131.60922762086793"><g><svg></svg></g><g id="icon-0"><svg viewBox="0 0 131.60922762086793 131.60922762086793" height="131.60922762086793" width="131.60922762086793"><g><path d="M0 65.805c0-36.343 29.462-65.805 65.805-65.805 36.343 0 65.805 29.462 65.804 65.805 0 36.343-29.462 65.805-65.804 65.804-36.343 0-65.805-29.462-65.805-65.804zM65.805 127.708c34.188 0 61.903-27.715 61.903-61.903 0-34.188-27.715-61.903-61.903-61.904-34.188 0-61.903 27.715-61.904 61.904 0 34.188 27.715 61.903 61.904 61.903z" data-fill-palette-color="tertiary" fill="#000000" stroke="transparent"></path></g><g transform="matrix(1,0,0,1,28.473300019643034,32.560019250182776)"><svg viewBox="0 0 74.66262758158186 66.48918912050237" height="66.48918912050237" width="74.66262758158186"><g><svg xmlns="http://www.w3.org/2000/svg" data-name="Layer 1" viewBox="-0.00021000000000981345 6.936372792249007 128.08533584884174 114.063627207751" x="0" y="0" width="74.66262758158186" height="66.48918912050237" class="icon-fi-0" data-fill-palette-color="quaternary" id="fi-0"><path d="M43 121c14.873 0 43-2.319 43-11.097 0-5.956-12.95-8.937-25.923-10.239-1.015 1.347-2.021 2.595-3.016 3.722 16.483 1.343 24.939 4.832 24.939 6.517 0 2.112-13.269 7.062-39 7.062s-39-4.95-39-7.062c0-1.851 10.192-5.881 30.03-6.85a8.143 8.143 0 0 1 1.28-3.833c0.047-0.072 0.103-0.16 0.154-0.239-15.221 0.677-35.464 3.474-35.464 10.922C0 118.681 28.127 121 43 121Z" fill="#ffffff" data-fill-palette-color="quaternary"></path><path d="M124.784 7.416L73.004 47.393a34.967 34.967 0 0 0-6.861 7.441C61.712 61.302 53.634 73.482 49.327 82.364a184.385 184.385 0 0 1-10.67 19.066 4.101 4.101 0 0 0-0.51 3.32 3.963 3.963 0 0 0 2.078 2.519 5.977 5.977 0 0 0 2.656 0.612c6.956-0.002 14.817-11.316 18.33-17.005 1.121 2.7 2.505 4.939 4.21 6.053a4.725 4.725 0 0 0 2.597 0.865 3.53 3.53 0 0 0 1.782-0.477c0.608-0.354 2.093-1.217 2.728-5.439a6.944 6.944 0 0 0 1.029 0.832c2.196 1.434 3.817 0.774 4.589 0.255 4.727-3.192 2.062-18.94 2.033-19.096a8.059 8.059 0 0 1 0.123-2.896 15.096 15.096 0 0 1 4.825-1.509 8.894 8.894 0 0 1 4.664 0.601A51.964 51.964 0 0 0 86.69 80.96c-5.573 6.283-8.129 11.823-7.6 16.472a8.061 8.061 0 0 0 3.032 5.696 2.049 2.049 0 0 0 1.169 0.356c12.8-0.231 38.936-41.285 44.591-57.176 0.373-1.049 0.118-36.924 0.118-38.517C128 6.708 125.662 6.737 124.784 7.416ZM67.882 93.705a2.294 2.294 0 0 1-0.287-0.163c-1.356-0.886-2.599-3.543-3.644-6.906 1.604-2.202 3.14-4.134 4.607-5.824l0.201 4.059C69.044 90.641 68.289 93.076 67.882 93.705Zm8.147-4.215a2.125 2.125 0 0 1-0.297-0.167c-0.584-0.381-1.762-1.57-3.098-5.247l-2.013-5.54a44.685 44.685 0 0 1 5.51-4.97 8.455 8.455 0 0 0 0.115 1.041C77.303 80.339 77.17 88.005 76.029 89.49Z" fill="#ffffff" data-fill-palette-color="quaternary"></path></svg><g></g></g></svg></g></svg></g></svg></g><g></g></svg></g></svg></g></svg></g></svg><rect width="512" height="320" fill="none" stroke="none" visibility="hidden"></rect></g></svg></g></svg>