<svg xmlns="http://www.w3.org/2000/svg" version="1.1" xmlns:xlink="http://www.w3.org/1999/xlink" xmlns:svgjs="http://svgjs.dev/svgjs" width="1000" height="623" viewBox="0 0 1000 623"><g transform="matrix(1,0,0,1,-0.6060606060606233,0.2522267206477409)"><svg viewBox="0 0 396 247" data-background-color="#f7d65a" preserveAspectRatio="xMidYMid meet" height="623" width="1000" xmlns="http://www.w3.org/2000/svg" xmlns:xlink="http://www.w3.org/1999/xlink"><defs></defs><g id="tight-bounds" transform="matrix(1,0,0,1,0.2400000000000091,-0.09999999999999432)"><svg viewBox="0 0 395.52 247.2" height="247.2" width="395.52"><g><svg></svg></g><g><svg viewBox="0 0 395.52 247.2" height="247.2" width="395.52"><g><path d="M0 0" fill="#000000" data-fill-palette-color="tertiary"></path></g><g transform="matrix(1,0,0,1,133.67119159787254,37.08)"><svg viewBox="0 0 128.1776168042549 173.04" height="173.04" width="128.1776168042549"><g><svg viewBox="0 0 395.52 533.9526705705459" height="173.04" width="128.1776168042549"><g transform="matrix(1,0,0,1,0,378.3709225904919)"><svg viewBox="0 0 395.52 155.5817479800541" height="155.5817479800541" width="395.52"><g><svg viewBox="0 0 395.52 155.5817479800541" height="155.5817479800541" width="395.52"><g><rect width="39.55199999999999" height="8.402450359632509" y="131.174192923285" fill="#000000" data-fill-palette-color="tertiary"></rect><rect width="39.55199999999999" height="8.402450359632509" y="131.174192923285" x="355.96799999999996" fill="#000000" data-fill-palette-color="tertiary"></rect></g><g><svg viewBox="0 0 395.52 93.17314487632508" height="93.17314487632508" width="395.52"><g transform="matrix(1,0,0,1,0,0)"><svg width="395.52" viewBox="-0.85 -36 212.23 50" height="93.17314487632508" data-palette-color="#000000"><path d="M-0.85 4.35L-0.85 4.35Q-0.55 3.65 0.8 0.68 2.15-2.3 4.33-7.08 6.5-11.85 9.22-17.93 11.95-24 15-30.8L15-30.8Q15.15-31.15 15.33-31.73 15.5-32.3 15.5-32.85L15.5-32.85Q15.5-33.4 15.18-33.77 14.85-34.15 13.8-34.15L13.8-34.15Q11.7-34.15 10.33-32.73 8.95-31.3 8.28-29.2 7.6-27.1 7.6-25.05L7.6-25.05Q7.6-24.55 7.63-24.2 7.65-23.85 7.7-23.5L7.7-23.5Q6.75-23.5 6.18-24.18 5.6-24.85 5.33-25.83 5.05-26.8 5.05-27.6L5.05-27.6Q5.05-29.25 5.95-30.75 6.85-32.25 8.28-33.45 9.7-34.65 11.43-35.33 13.15-36 14.8-36L14.8-36Q16.45-36 17.57-35.08 18.7-34.15 19.28-31.75 19.85-29.35 19.85-24.8L19.85-24.8Q19.85-21.7 19.63-18.2 19.4-14.7 19.15-11.3 18.9-7.9 18.8-5.1L18.8-5.1Q19.6-8.15 21.08-11.6 22.55-15.05 24.33-18.48 26.1-21.9 27.85-24.9 29.6-27.9 31-30.1 32.4-32.3 33.05-33.3L33.05-33.3Q33.75-34.3 34.25-34.83 34.75-35.35 35.55-35.35L35.55-35.35Q36.25-35.35 37.15-35L37.15-35Q36.8-34.1 36.18-32.33 35.55-30.55 34.9-28L34.9-28Q34.1-24.95 33.3-21.08 32.5-17.2 31.83-13.2 31.15-9.2 30.75-5.68 30.35-2.15 30.35 0.25L30.35 0.25Q30.35 1.35 30.45 1.95 30.55 2.55 30.73 3.03 30.9 3.5 31.1 4.35L31.1 4.35Q29.4 4.35 28.5 3.8 27.6 3.25 27.3 2.02 27 0.8 27-1.25L27-1.25Q27-7.2 28.53-14.03 30.05-20.85 32-28.2L32-28.2Q30.55-26.35 28.98-23.53 27.4-20.7 25.83-17.43 24.25-14.15 22.83-10.88 21.4-7.6 20.3-4.8 19.2-2 18.6-0.15L18.6-0.15Q18.3-0.05 18.2 0 18.1 0.05 17.85 0.05L17.85 0.05Q16.5 0.05 16.07-1.55 15.65-3.15 15.65-6.05L15.65-6.05Q15.65-8.1 15.78-10.93 15.9-13.75 16.05-16.75 16.2-19.75 16.32-22.53 16.45-25.3 16.45-27.3L16.45-27.3Q16.45-28.3 16.43-28.95 16.4-29.6 16.35-30.1L16.35-30.1Q12.35-20.8 9.65-14.23 6.95-7.65 5.13-3.55 3.3 0.55 1.9 2.45 0.5 4.35-0.85 4.35ZM40.4 1.3L40.4 1.3Q38.45 1.3 37.5 0.08 36.55-1.15 36.55-2.9L36.55-2.9Q36.55-4.05 36.97-5.8 37.4-7.55 38.1-9.47 38.8-11.4 39.72-13.1 40.65-14.8 41.7-15.88 42.75-16.95 43.75-16.95L43.75-16.95Q44.2-16.95 44.52-16.68 44.85-16.4 44.85-15.85L44.85-15.85Q44.85-15.25 44.07-13.9 43.3-12.55 42.25-10.8 41.2-9.05 40.42-7.13 39.65-5.2 39.65-3.45L39.65-3.45Q39.65-1.65 40.25-1.05 40.85-0.45 42.1-0.45L42.1-0.45Q43.8-0.45 45.72-2.15 47.65-3.85 49.8-8.1L49.8-8.1 50.25-7.6Q48.8-3.3 46.07-1 43.35 1.3 40.4 1.3ZM46.4-21.6L46.4-21.6Q45.6-21.6 44.97-22 44.35-22.4 44.35-23.25L44.35-23.25Q44.35-24.3 45.57-25.08 46.8-25.85 48-25.85L48-25.85Q48.75-25.85 49.2-25.5 49.65-25.15 49.65-24.3L49.65-24.3Q49.65-23.35 48.62-22.48 47.6-21.6 46.4-21.6ZM51.8 1.5L51.8 1.5Q50.95 1.5 50.07 1.07 49.2 0.65 48.62-0.3 48.05-1.25 48.05-2.7L48.05-2.7Q48.05-4.35 48.84-6.4 49.64-8.45 50.99-10.48 52.34-12.5 54.09-14.23 55.84-15.95 57.74-16.98 59.64-18 61.49-18L61.49-18Q62.55-18 63.12-17.63 63.7-17.25 63.7-16.45L63.7-16.45Q63.7-16.25 63.67-16.1 63.64-15.95 63.59-15.75L63.59-15.75Q63.34-16.15 62.87-16.32 62.39-16.5 61.7-16.5L61.7-16.5Q60.09-16.5 58.57-15.53 57.05-14.55 55.77-12.98 54.49-11.4 53.55-9.6 52.59-7.8 52.07-6.13 51.55-4.45 51.55-3.3L51.55-3.3Q51.55-2.2 52.05-1.55 52.55-0.9 53.34-0.9L53.34-0.9Q54.7-0.9 56.62-2.6 58.55-4.3 60.55-7.4 62.55-10.5 64.14-14.65L64.14-14.65Q65.25-17.55 66.42-20.55 67.59-23.55 68.8-26.33 70-29.1 71.12-31.28 72.25-33.45 73.27-34.73 74.3-36 75.09-36L75.09-36Q75.5-36 75.8-35.68 76.09-35.35 76.09-34.85L76.09-34.85Q76.09-34.05 75.27-32.13 74.44-30.2 73.12-27.53 71.8-24.85 70.34-21.7 68.89-18.55 67.57-15.3 66.25-12.05 65.42-9.03 64.59-6 64.59-3.5L64.59-3.5Q64.59-2.1 64.75-1.4 64.89-0.7 65.75-0.7L65.75-0.7Q66.8-0.7 68.19-1.6 69.59-2.5 71-4.15 72.39-5.8 73.44-8.1L73.44-8.1 74.05-7.65Q73.09-5.1 71.44-3.08 69.8-1.05 67.92 0.13 66.05 1.3 64.34 1.3L64.34 1.3Q62.49 1.3 61.77 0.08 61.05-1.15 61.05-2.45L61.05-2.45Q61.05-3.3 61.3-4.7 61.55-6.1 61.99-7.8L61.99-7.8Q60.39-5.15 58.59-3.03 56.8-0.9 55.07 0.3 53.34 1.5 51.8 1.5ZM74.89 2.35L74.89 2.35Q73.34 2.35 72.27 1.33 71.19 0.3 71.19-1.8L71.19-1.8Q71.19-3.6 71.99-5.68 72.79-7.75 74.19-9.78 75.59-11.8 77.37-13.48 79.14-15.15 81.12-16.15 83.09-17.15 85.04-17.15L85.04-17.15Q86.99-17.15 88.29-16.13 89.59-15.1 89.59-13.4L89.59-13.4Q89.59-12.15 88.92-11.7 88.24-11.25 87.14-11.25L87.14-11.25Q87.24-11.65 87.32-12.13 87.39-12.6 87.39-13L87.39-13Q87.39-14.15 86.84-14.98 86.29-15.8 84.94-15.8L84.94-15.8Q83.54-15.8 82.09-14.83 80.64-13.85 79.29-12.23 77.94-10.6 76.89-8.7 75.84-6.8 75.24-4.95 74.64-3.1 74.64-1.65L74.64-1.65Q74.64 0.3 75.99 0.3L75.99 0.3Q77.14 0.3 78.49-0.78 79.84-1.85 81.27-3.53 82.69-5.2 83.99-7 85.29-8.8 86.29-10.3L86.29-10.3Q86.49-10.6 86.54-10.6L86.54-10.6Q86.84-10.55 87.32-10.4 87.79-10.25 88.14-10 88.49-9.75 88.49-9.35L88.49-9.35Q88.49-8.9 88.04-8.13 87.59-7.35 87.04-6.35 86.49-5.35 86.04-4.33 85.59-3.3 85.59-2.4L85.59-2.4Q85.59-1.65 85.99-0.93 86.39-0.2 87.29-0.2L87.29-0.2Q88.64-0.2 90.84-2.18 93.04-4.15 95.29-8.1L95.29-8.1 95.79-7.6Q94.74-4.9 93.09-2.85 91.44-0.8 89.57 0.35 87.69 1.5 85.89 1.5L85.89 1.5Q84.04 1.5 83.17 0.4 82.29-0.7 82.29-2L82.29-2Q82.29-2.3 82.34-2.68 82.39-3.05 82.44-3.45L82.44-3.45Q80.29-0.55 78.52 0.9 76.74 2.35 74.89 2.35ZM99.54 2.55L99.54 2.55Q97.19 2.55 95.82 1.53 94.44 0.5 93.87-1 93.29-2.5 93.29-4L93.29-4Q93.29-5.5 93.69-6.3 94.09-7.1 94.67-7.5 95.24-7.9 95.77-8.1 96.29-8.3 96.49-8.5L96.49-8.5Q97.99-10.15 99.24-11.95 100.49-13.75 101.44-15.75L101.44-15.75 101.44-16.35Q101.44-18.2 102.07-18.98 102.69-19.75 103.39-19.75L103.39-19.75Q103.79-19.75 103.99-19.55 104.19-19.35 104.19-19.1L104.19-19.1Q104.19-18.85 104.04-18.3 103.89-17.75 103.89-16.9L103.89-16.9Q103.89-15.25 104.54-13.33 105.19-11.4 105.84-9.28 106.49-7.15 106.49-4.85L106.49-4.85Q106.49-4.2 106.42-3.58 106.34-2.95 106.19-2.4L106.19-2.4Q107.94-2.7 109.49-3.98 111.04-5.25 112.49-8.05L112.49-8.05 112.94-7.55Q111.99-4.8 110.09-3.38 108.19-1.95 105.94-1.6L105.94-1.6Q105.14 0.55 103.42 1.55 101.69 2.55 99.54 2.55ZM99.64 0.8L99.64 0.8Q100.24 0.8 101.24 0.4 102.24 0 102.79-1.65L102.79-1.65Q100.69-2.05 99.07-3.3 97.44-4.55 96.64-5.8L96.64-5.8Q95.54-5.75 95.54-4.05L95.54-4.05Q95.54-2.25 96.62-0.73 97.69 0.8 99.64 0.8ZM103.04-2.45L103.04-2.45Q103.14-2.95 103.19-3.5 103.24-4.05 103.24-4.8L103.24-4.8Q103.24-7.15 102.67-9.47 102.09-11.8 101.69-13.85L101.69-13.85Q100.54-11.95 99.27-10.23 97.99-8.5 96.84-7.35L96.84-7.35Q97.59-5.75 99.17-4.35 100.74-2.95 103.04-2.45ZM134.69 4.35L134.69 4.35Q131.99 4.35 129.59 3.38 127.19 2.4 125.71 0.4 124.24-1.6 124.24-4.6L124.24-4.6Q124.24-7.2 125.26-8.65 126.29-10.1 127.79-10.7 129.29-11.3 130.64-11.3L130.64-11.3Q129.29-9.85 128.59-8.1 127.89-6.35 127.89-4.6L127.89-4.6Q127.89-2.75 128.71-1.15 129.54 0.45 131.24 1.43 132.94 2.4 135.54 2.4L135.54 2.4Q137.79 2.4 139.94 1.58 142.09 0.75 143.46-0.88 144.84-2.5 144.84-4.9L144.84-4.9Q144.84-7.05 143.74-8.6 142.64-10.15 140.91-11.35 139.19-12.55 137.24-13.65 135.29-14.75 133.56-15.98 131.84-17.2 130.74-18.8 129.64-20.4 129.64-22.65L129.64-22.65Q129.64-24.75 130.64-27.05 131.64-29.35 133.51-31.4 135.39-33.45 138.01-34.73 140.64-36 143.89-36L143.89-36Q146.84-36 147.99-34.58 149.14-33.15 149.14-31L149.14-31Q149.14-29.2 148.51-27.13 147.89-25.05 146.99-23.18 146.09-21.3 145.29-20L145.29-20Q144.39-20.2 144.01-20.78 143.64-21.35 143.64-22.15L143.64-22.15Q143.64-23.2 144.09-24.55 144.54-25.9 145.11-27.35 145.69-28.8 146.14-30.18 146.59-31.55 146.59-32.65L146.59-32.65Q146.59-33.65 145.99-34.23 145.39-34.8 143.79-34.8L143.79-34.8Q141.44-34.8 139.44-33.7 137.44-32.6 135.94-30.88 134.44-29.15 133.61-27.25 132.79-25.35 132.79-23.8L132.79-23.8Q132.79-21.95 133.86-20.63 134.94-19.3 136.64-18.23 138.34-17.15 140.26-16.07 142.19-15 143.89-13.7 145.59-12.4 146.66-10.63 147.74-8.85 147.74-6.3L147.74-6.3Q147.74-3.7 146.59-1.73 145.44 0.25 143.51 1.6 141.59 2.95 139.29 3.65 136.99 4.35 134.69 4.35ZM153.68 1.9L153.68 1.9Q152.73 1.9 152.18 0.3 151.63-1.3 151.63-3.3L151.63-3.3Q151.63-5.7 152.43-9 153.23-12.3 154.53-15.95 155.83-19.6 157.46-23.1 159.08-26.6 160.78-29.45 162.48-32.3 163.98-34 165.48-35.7 166.58-35.7L166.58-35.7Q167.48-35.7 167.86-34.63 168.23-33.55 168.23-32.55L168.23-32.55Q168.23-31.15 167.61-29.15 166.98-27.15 165.88-24.88 164.78-22.6 163.33-20.4 161.88-18.2 160.18-16.38 158.48-14.55 156.73-13.5L156.73-13.5Q156.13-12.05 155.71-10.25 155.28-8.45 155.08-6.73 154.88-5 154.88-3.65L154.88-3.65Q154.88-3.1 154.91-2.7 154.93-2.3 154.98-1.95L154.98-1.95Q155.68-4 156.51-5.93 157.33-7.85 158.28-9.47 159.23-11.1 160.31-12.33 161.38-13.55 162.58-14.23 163.78-14.9 165.13-14.9L165.13-14.9Q166.53-14.9 167.36-14.23 168.18-13.55 168.56-12.53 168.93-11.5 168.93-10.4L168.93-10.4Q168.93-8.85 168.41-7.4 167.88-5.95 167.33-4.6 166.78-3.25 166.78-2L166.78-2Q166.78-1 167.21-0.55 167.63-0.1 168.28-0.1L168.28-0.1Q169.43-0.1 170.86-1.2 172.28-2.3 173.68-4.13 175.08-5.95 176.08-8.1L176.08-8.1 176.73-7.5Q175.68-5.05 174.18-3.08 172.68-1.1 170.88 0.05 169.08 1.2 167.13 1.2L167.13 1.2Q165.43 1.2 164.56 0.3 163.68-0.6 163.68-1.95L163.68-1.95Q163.68-3 164.08-4.3 164.48-5.6 164.86-6.95 165.23-8.3 165.23-9.5L165.23-9.5Q165.23-10.8 164.68-11.35 164.13-11.9 163.33-11.9L163.33-11.9Q162.08-11.9 161.08-10.9 160.08-9.9 159.26-8.33 158.43-6.75 157.71-5 156.98-3.25 156.33-1.68 155.68-0.1 155.03 0.9 154.38 1.9 153.68 1.9ZM157.38-15.45L157.38-15.45Q158.78-16.55 160.11-18.25 161.43-19.95 162.58-21.88 163.73-23.8 164.63-25.65 165.53-27.5 166.03-29 166.53-30.5 166.53-31.25L166.53-31.25Q166.53-31.5 166.48-31.58 166.43-31.65 166.33-31.65L166.33-31.65Q165.98-31.65 164.91-30.28 163.83-28.9 162.43-26.6 161.03-24.3 159.68-21.4 158.33-18.5 157.38-15.45ZM178.58 1.6L178.58 1.6Q176.43 1.6 175.53 0.28 174.63-1.05 174.63-2.95L174.63-2.95Q174.63-4.5 175.13-6.15 175.63-7.8 176.46-9.25 177.28-10.7 178.31-11.6 179.33-12.5 180.38-12.5L180.38-12.5Q180.63-12.5 180.91-12.43 181.18-12.35 181.43-12.25L181.43-12.25Q180.98-11.85 180.36-10.78 179.73-9.7 179.18-8.33 178.63-6.95 178.26-5.6 177.88-4.25 177.88-3.3L177.88-3.3Q177.88-1.8 178.38-1.13 178.88-0.45 179.68-0.45L179.68-0.45Q180.73-0.45 182.18-1.58 183.63-2.7 185.03-4.45L185.03-4.45Q183.63-5.6 182.86-7.48 182.08-9.35 182.08-11.3L182.08-11.3Q182.08-12.95 182.66-14.4 183.23-15.85 184.33-16.73 185.43-17.6 186.98-17.6L186.98-17.6Q189.03-17.6 189.73-16.5 190.43-15.4 190.43-13.75L190.43-13.75Q190.43-11.8 189.48-9.43 188.53-7.05 187.08-4.85L187.08-4.85Q187.98-4.35 188.98-4.35L188.98-4.35Q189.78-4.35 190.78-4.67 191.78-5 192.76-5.8 193.73-6.6 194.33-7.95L194.33-7.95 194.93-7.45Q193.93-5.1 192.11-4.13 190.28-3.15 188.63-3.15L188.63-3.15Q187.98-3.15 187.38-3.28 186.78-3.4 186.23-3.65L186.23-3.65Q184.53-1.4 182.51 0.1 180.48 1.6 178.58 1.6ZM185.93-5.75L185.93-5.75Q187.18-7.6 188.01-9.63 188.83-11.65 188.83-13.45L188.83-13.45Q188.83-14.9 188.41-15.58 187.98-16.25 187.33-16.25L187.33-16.25Q186.33-16.25 185.28-14.8 184.23-13.35 184.23-11.15L184.23-11.15Q184.23-9.7 184.66-8.22 185.08-6.75 185.93-5.75ZM190.23 14L190.23 14Q189.83 14 189.45 13.58 189.08 13.15 188.88 12.68 188.68 12.2 188.68 12.1L188.68 12.1Q189.38 9.65 190.05 7.73 190.73 5.8 191.4 3.78 192.08 1.75 192.73-0.98 193.38-3.7 194.08-7.75 194.78-11.8 195.48-17.8L195.48-17.8Q195.53-18.25 195.68-18.45 195.83-18.65 196.43-18.65L196.43-18.65Q197.73-18.65 198.28-17.93 198.83-17.2 198.83-16.35L198.83-16.35Q198.83-15.65 198.53-13.85 198.23-12.05 197.68-9.6L197.68-9.6Q198.53-11.25 199.8-12.95 201.08-14.65 202.73-15.8 204.38-16.95 206.33-16.95L206.33-16.95Q208.53-16.95 209.95-15.38 211.38-13.8 211.38-11.25L211.38-11.25Q211.38-9.3 210.5-7.13 209.63-4.95 208.05-3.03 206.48-1.1 204.33 0.1 202.18 1.3 199.58 1.3L199.58 1.3Q198.28 1.3 197.48 1 196.68 0.7 196.68 0.4L196.68 0.4Q196.68 0.2 197.05 0.18 197.43 0.15 197.93 0.15L197.93 0.15Q199.93 0.15 201.75-0.83 203.58-1.8 205.03-3.4 206.48-5 207.3-6.95 208.13-8.9 208.13-10.8L208.13-10.8Q208.13-12.4 207.45-13.53 206.78-14.65 205.28-14.65L205.28-14.65Q203.98-14.65 202.7-13.83 201.43-13 200.3-11.73 199.18-10.45 198.3-9.08 197.43-7.7 196.98-6.6L196.98-6.6Q196.08-2.85 195.18 0.63 194.28 4.1 193.45 6.93 192.63 9.75 191.95 11.55 191.28 13.35 190.83 13.75L190.83 13.75Q190.58 14 190.23 14Z" opacity="1" transform="matrix(1,0,0,1,0,0)" fill="#000000" class="undefined-text-0" data-fill-palette-color="primary" id="text-0"></path></svg></g></svg></g><g transform="matrix(1,0,0,1,39.55199999999999,115.1690882261484)"><svg viewBox="0 0 316.416 40.412659753905714" height="40.412659753905714" width="316.416"><g transform="matrix(1,0,0,1,8,0)"><svg width="300.416" viewBox="1.6 -29.6 361.59999999999997 48.650000000000006" height="40.412659753905714" data-palette-color="#000000"><path d="M1.7-18.65L1.7-18.65Q1.6-19.3 1.6-19.45L1.6-19.45Q2.3-23.2 8.95-26.6L8.95-26.6Q14.2-29.05 21.35-29.05L21.35-29.05Q25.75-29.05 30.05-27.85L30.05-27.85Q32.95-26.85 34.45-25 35.95-23.15 35.95-21.25L35.95-21.25Q35.95-18.35 33.65-16.13 31.35-13.9 28.5-12.7L28.5-12.7Q22.15-9.95 14-9.65L14-9.65Q14.65-8.85 16.1-7.03 17.55-5.2 18.3-4.3 19.05-3.4 20.48-1.78 21.9-0.15 22.88 0.73 23.85 1.6 25.35 2.83 26.85 4.05 28.2 4.75L28.2 4.75Q32.9 7.25 36.4 7.25L36.4 7.25 38.1 7.1Q39.8 6.8 40.8 5.73 41.8 4.65 41.8 3.35L41.8 3.35Q41.8 2.85 41.68 2.27 41.55 1.7 42 1.7L42 1.7Q42.5 1.75 42.68 2.43 42.85 3.1 42.85 4.1 42.85 5.1 42.35 6.4L42.35 6.4Q41.8 8.2 39.3 9.15L39.3 9.15Q37.7 9.75 36.3 9.75L36.3 9.75Q32.1 9.75 27.8 7.4L27.8 7.4Q24.95 5.8 22.68 3.43 20.4 1.05 18.88-0.85 17.35-2.75 15.48-5.58 13.6-8.4 12.85-9.35L12.85-9.35 12.5-9.4Q8.7-2.4 8.7-0.95L8.7-0.95Q8.7-0.2 9.35-0.2 10-0.2 11.1-1.58 12.2-2.95 12.6-2.9L12.6-2.9Q12.9-2.6 11.95-1.6L11.95-1.6Q11.85-1.5 11.6-1.07 11.35-0.65 11.18-0.4 11-0.15 10.7 0.25 10.4 0.65 10.15 0.9 9.9 1.15 9.6 1.4L9.6 1.4Q9 1.9 8.55 1.9 8.1 1.9 7.3 1.73 6.5 1.55 6.5 1.05L6.5 1.05Q6.5-1.2 10.6-9.4L10.6-9.4Q8.95-9.55 8.95-10.6L8.95-10.6Q8.95-10.8 9-11.1L9-11.1Q9.35-11.95 10.28-11.95 11.2-11.95 11.75-11.5L11.75-11.5Q12.15-12.3 12.7-13.3L12.7-13.3Q14.65-16.8 14.65-17.75L14.65-17.75Q14.65-18 14.6-18.25L14.6-18.25Q14.8-19.65 17.03-21.93 19.25-24.2 21.05-24.2L21.05-24.2Q21.65-24.2 22.65-23.75 23.65-23.3 23.85-22.5L23.85-22.5Q23.9-22.15 23.88-22.08 23.85-22 23.6-22.1 23.35-22.2 23.3-22.2L23.3-22.2Q19.8-22.2 13.3-10.85L13.3-10.85Q13.9-10.6 14.48-10.6 15.05-10.6 15.45-10.65L15.45-10.65Q20.55-11.2 25.43-13.05 30.3-14.9 33-17.7L33-17.7Q34.75-19.4 34.75-21.3L34.75-21.3Q34.75-26.9 23.3-26.9L23.3-26.9Q16.75-26.9 10.8-24.9L10.8-24.9Q7.7-23.8 5.53-21.95 3.35-20.1 2.95-17.75L2.95-17.75Q2.9-17.5 2.9-17.1 2.9-16.7 3.23-16.13 3.55-15.55 4-15.25 4.45-14.95 5.28-14.55 6.1-14.15 6.38-13.95 6.65-13.75 6.5-13.53 6.35-13.3 5.85-13.4L5.85-13.4Q4.3-13.65 2.95-14.95 1.6-16.25 1.6-17.75L1.6-17.75Q1.6-18.2 1.7-18.65ZM40.5-14.55L40.5-14.55Q43.2-14.55 43.2-11.95L43.2-11.95Q43.2-10.6 42.45-9.75L42.45-9.75Q41.2-7.9 38.4-6.53 35.6-5.15 33.65-5L33.65-5Q32.95-4.95 32.9-5.4L32.9-5.4Q32.85-5.6 33.02-5.65 33.2-5.7 33.3-5.7L33.3-5.7Q34.45-5.8 36.25-6.8L36.25-6.8Q39.6-8.6 41.15-10.5L41.15-10.5Q41.8-11.4 41.8-12.23 41.8-13.05 41-13.05L41-13.05Q40.35-13.05 39.25-12.5L39.25-12.5Q36.9-11.4 34.3-8.68 31.7-5.95 30.9-3.35L30.9-3.35Q30.65-2.55 30.65-1.78 30.65-1 31.3-0.3 31.95 0.4 33.3 0.4L33.3 0.4Q34.8 0.4 36.75-0.4L36.75-0.4Q42.4-2.7 45.45-7.35L45.45-7.35Q45.75-7.75 46-7.5L46-7.5Q46.2-7.4 46.2-7.25 46.2-7.1 46.05-6.9L46.05-6.9Q44.55-4.4 42.25-2.45L42.25-2.45Q37.8 1.35 33.6 1.35L33.6 1.35Q30 1.35 28.55-0.8L28.55-0.8Q28-1.65 28-2.85 28-4.05 28.65-5.7L28.65-5.7Q29.9-8.55 34-11.55 38.1-14.55 40.5-14.55ZM47.4 0.55L47.4 0.55Q46.6 0.55 45.67 0.08 44.75-0.4 44.1-1.28 43.45-2.15 43.45-3.15 43.45-4.15 43.9-5.05L43.9-5.05Q44.9-7.15 47.12-9.13 49.35-11.1 51.75-12.5 54.15-13.9 55.55-14.25 56.95-14.6 58.27-14.6 59.59-14.6 60.55-13.93 61.5-13.25 61.5-12.5L61.5-12.5Q61.5-12.25 61.45-12.2 61.4-12.15 61.2-12.25L61.2-12.25Q60.59-13.2 58.72-13.2 56.85-13.2 54.47-11.98 52.1-10.75 50-8.9L50-8.9Q48.25-7.25 46.92-5.18 45.6-3.1 45.6-2.15L45.6-2.15Q45.6-0.3 46.65-0.3 47.7-0.3 49.85-2L49.85-2Q53.4-5 54.7-6.4L54.7-6.4Q59.3-11.35 59.65-11.35L59.65-11.35Q60.25-11.35 61.09-11 61.95-10.65 61.65-10.15L61.65-10.15Q59.09-6.55 58.65-2.9L58.65-2.9Q58.6-2.45 58.6-1.75 58.6-1.05 59-0.6L59-0.6Q59.75 0.2 61.05-0.5 62.35-1.2 64.67-3.3 67-5.4 68.4-7.4L68.4-7.4Q68.59-7.65 68.84-7.53 69.09-7.4 69.09-7.3L69.09-7.3Q69.09-6.55 66.72-4.03 64.34-1.5 63.1-0.6L63.1-0.6Q60.75 1.15 58.75 1.15L58.75 1.15Q56.85 1.15 56.2-0.75L56.2-0.75Q56.05-1.35 56.05-2.1L56.05-2.1Q56.05-4.35 57-6.85L57-6.85Q56.8-6.75 55.15-4.85 53.5-2.95 51.32-1.2 49.15 0.55 47.4 0.55ZM69.97-9.13Q72.19-11.1 74.59-12.5 76.99-13.9 78.39-14.25 79.79-14.6 81.14-14.6 82.49-14.6 83.69-13.7L83.69-13.7Q90.54-29.6 96.79-29.6L96.79-29.6Q98.89-29.6 99.64-28.4L99.64-28.4Q99.99-27.8 99.99-27.35L99.99-27.35Q99.99-26.1 98.92-24.18 97.84-22.25 95.59-19.95 93.34-17.65 89.14-14.28 84.94-10.9 84.49-10.5L84.49-10.5Q82.89-6.8 81.99-3.35 81.09 0.1 81.09 1.8 81.09 3.5 81.69 4.5L81.69 4.5Q81.99 5.15 82.59 5.28 83.19 5.4 83.62 5.13 84.04 4.85 84.27 4.65 84.49 4.45 84.82 4.28 85.14 4.1 85.29 4.2 85.44 4.3 85.24 4.75L85.24 4.75Q84.84 5.25 84.49 5.6L84.49 5.6Q83.69 6.15 82.62 6.15 81.54 6.15 81.19 6.1L81.19 6.1Q78.79 5.7 78.79 2.6L78.79 2.6Q78.79-0.4 79.59-2.95L79.59-2.95Q80.69-6.45 81.59-8.75L81.59-8.75Q73.59 0.55 70.24 0.55L70.24 0.55Q69.44 0.55 68.52 0.08 67.59-0.4 66.94-1.28 66.29-2.15 66.29-3.15 66.29-4.15 66.74-5.05L66.74-5.05Q67.74-7.15 69.97-9.13ZM82.59-11.2L83.29-12.9Q82.69-13.2 81.19-13.2 79.69-13.2 77.32-11.98 74.94-10.75 72.84-8.9L72.84-8.9Q71.09-7.25 69.77-5.18 68.44-3.1 68.44-2.15L68.44-2.15Q68.44-0.3 69.49-0.3 70.54-0.3 72.69-2L72.69-2Q78.24-6.55 82.59-11.2L82.59-11.2ZM97.94-25.5L97.94-25.5Q98.59-26.7 98.59-27.53 98.59-28.35 97.87-28.35 97.14-28.35 95.94-27.45L95.94-27.45Q90.44-23.25 85.99-13.4L85.99-13.4Q89.24-15.5 92.79-19 96.34-22.5 97.94-25.5ZM103.99-13L103.99-13Q103.99-12.65 103.44-11.48 102.89-10.3 100.29-3.4L100.29-3.4Q102.09-5.6 104.84-8.5L104.84-8.5Q110.39-14.3 112.49-14.3L112.49-14.3Q112.94-14.3 113.36-14.05 113.79-13.8 113.79-12.93 113.79-12.05 113.24-10.98 112.69-9.9 111.99-8.35 111.29-6.8 111.04-6.4L111.04-6.4Q115.24-10.2 117.39-11.03 119.54-11.85 120.24-11.85 120.94-11.85 120.94-11.35L120.94-11.35Q120.94-11.05 120.19-9.9 119.44-8.75 118.54-6.5 117.64-4.25 117.54-3.35 117.44-2.45 117.44-1.75 117.44-1.05 117.84-0.6L117.84-0.6Q118.59 0.2 119.89-0.5 121.19-1.2 123.51-3.3 125.84-5.4 127.24-7.4L127.24-7.4Q127.44-7.65 127.71-7.53 127.99-7.4 127.99-7.28 127.99-7.15 127.89-7L127.89-7Q127.14-5.65 125.19-3.55L125.19-3.55Q121.99-0.1 119.84 0.7L119.84 0.7Q117.49 1.5 116.44 0.9 115.39 0.3 115.14-0.45 114.89-1.2 114.89-1.95L114.89-1.95Q114.89-4.3 115.81-6.65 116.74-9 117.29-9.85L117.29-9.85Q115.39-9.05 114.04-7.85L114.04-7.85Q111.99-6.05 110.74-4.7L110.74-4.7 109.74-3.6Q109.29-2.5 108.16-2.35 107.04-2.2 107.09-3.1L107.09-3.1Q107.19-4.05 108.94-7.35 110.69-10.65 110.69-11.03 110.69-11.4 110.29-11.4L110.29-11.4Q109.39-11.4 107.04-9.35L107.04-9.35Q105.49-7.9 102.46-3.88 99.44 0.15 99.04 0.4L99.04 0.4Q97.24 1.3 96.79 1.3 96.34 1.3 96.34 1.15 96.34 1 96.49 0.7 96.64 0.4 99.54-8L99.54-8Q98.44-6.3 97.54-5.4L97.54-5.4Q97.14-4.95 97.14-5.58 97.14-6.2 97.49-6.65L97.49-6.65Q99.74-9.6 100.79-11.65L100.79-11.65Q101.09-13.4 101.99-13.7L101.99-13.7Q102.54-13.9 103.26-13.7 103.99-13.5 103.99-13ZM136.99-5.5L136.99-5.5Q137.89-7.35 137.89-8.35 137.89-9.35 137.66-9.93 137.44-10.5 137.86-10.9 138.29-11.3 138.94-11.2L138.94-11.2Q139.94-10.95 139.94-8.95 139.94-6.95 137.59-3.7L137.59-3.7Q137.64-2.35 138.99-2.35 140.34-2.35 143.09-5.25L143.09-5.25Q144.39-6.75 144.71-7.2 145.04-7.65 145.29-7.53 145.54-7.4 145.54-7.3L145.54-7.3Q145.54-6.8 143.74-4.7L143.74-4.7Q140.89-1.2 138.69-1.2L138.69-1.2Q137.24-1.2 136.64-2.45L136.64-2.45Q135.64-1.4 134.69-0.5L134.69-0.5Q132.74 1.15 130.34 1.15L130.34 1.15Q128.99 1.15 128.09 0.5L128.09 0.5Q126.34-0.55 126.34-3.25L126.34-3.25Q126.34-6.2 128.34-9.25L128.34-9.25Q129.49-11.05 131.04-12.4L131.04-12.4Q133.49-14.55 135.69-14.55L135.69-14.55Q136.24-14.55 136.74-14.4L136.74-14.4Q138.24-13.9 138.24-12.5L138.24-12.5Q138.24-11.35 137.64-11.35L137.64-11.35Q137.39-11.45 137.39-12.1L137.39-12.1Q137.39-13 136.39-13L136.39-13Q134.64-13 131.89-9.8 129.14-6.6 128.59-3.35L128.59-3.35Q128.49-2.8 128.49-2.13 128.49-1.45 128.94-0.58 129.39 0.3 130.61 0.3 131.84 0.3 133.29-0.8 134.74-1.9 135.89-3.6L135.89-3.6 135.74-3.9Q135.54-4.7 135.94-5.2 136.34-5.7 136.99-5.5ZM150.78 1.25L150.78 1.25Q148.23 1.25 148.23-1.83 148.23-4.9 152.63-9.4L152.63-9.4Q152.98-9.75 153.13-9.95L153.13-9.95 153.48-10.45Q154.18-11.4 154.13-11.65L154.13-11.65 153.98-12.1Q153.78-12.7 152.33-12.98 150.88-13.25 149.98-13.25L149.98-13.25Q145.48-6.9 144.78-6 144.08-5.1 143.83-5.25 143.58-5.4 143.58-5.6 143.58-5.8 143.88-6.2L143.88-6.2Q146.58-9.5 148.53-13.25L148.53-13.25Q147.93-13.35 147.63-13.68 147.33-14 147.58-14.78 147.83-15.55 149.11-16.85 150.38-18.15 151.33-18.6 152.28-19.05 152.53-19.15 152.78-19.25 153.08-19.25L153.08-19.25Q153.68-19.25 152.68-17.45L152.68-17.45 150.73-14.35Q152.98-14.2 154.58-14.2L154.58-14.2 156.33-14.25Q157.18-14.25 157.58-14.03 157.98-13.8 157.78-13.25L157.78-13.25Q157.43-12.3 156.03-10.7L156.03-10.7Q153.03-7.2 151.53-3.25L151.53-3.25Q151.18-2.3 151.18-1.6L151.18-1.6Q151.18-0.15 152.23-0.15L152.23-0.15Q152.58-0.15 153.56-0.7 154.53-1.25 156.83-3.33 159.13-5.4 160.53-7.4L160.53-7.4Q160.73-7.65 161.01-7.53 161.28-7.4 161.28-7.28 161.28-7.15 161.18-7L161.18-7Q160.43-5.65 158.48-3.55 156.53-1.45 154.68-0.15L154.68-0.15Q152.88 1.25 150.78 1.25ZM171.48-14.55L171.48-14.55Q174.18-14.55 174.18-11.95L174.18-11.95Q174.18-10.6 173.43-9.75L173.43-9.75Q172.18-7.9 169.38-6.53 166.58-5.15 164.63-5L164.63-5Q163.93-4.95 163.88-5.4L163.88-5.4Q163.83-5.6 164.01-5.65 164.18-5.7 164.28-5.7L164.28-5.7Q165.43-5.8 167.23-6.8L167.23-6.8Q170.58-8.6 172.13-10.5L172.13-10.5Q172.78-11.4 172.78-12.23 172.78-13.05 171.98-13.05L171.98-13.05Q171.33-13.05 170.23-12.5L170.23-12.5Q167.88-11.4 165.28-8.68 162.68-5.95 161.88-3.35L161.88-3.35Q161.63-2.55 161.63-1.78 161.63-1 162.28-0.3 162.93 0.4 164.28 0.4L164.28 0.4Q165.78 0.4 167.73-0.4L167.73-0.4Q173.38-2.7 176.43-7.35L176.43-7.35Q176.73-7.75 176.98-7.5L176.98-7.5Q177.18-7.4 177.18-7.25 177.18-7.1 177.03-6.9L177.03-6.9Q175.53-4.4 173.23-2.45L173.23-2.45Q168.78 1.35 164.58 1.35L164.58 1.35Q160.98 1.35 159.53-0.8L159.53-0.8Q158.98-1.65 158.98-2.85 158.98-4.05 159.63-5.7L159.63-5.7Q160.88-8.55 164.98-11.55 169.08-14.55 171.48-14.55ZM181.43-0.45L181.43-0.45Q181.43 0.55 179.23 3.15L179.23 3.15Q176.53 6.65 175.83 6.65L175.83 6.65Q175.58 6.65 175.58 6.25L175.58 6.25Q175.58 6.15 176.98 4.53 178.38 2.9 178.8 1.53 179.23 0.15 178.88-0.45L178.88-0.45Q178.03-2.1 180.13-2.1L180.13-2.1Q180.68-2.1 181.05-1.53 181.43-0.95 181.43-0.45ZM203.45-12.5Q202.72-11.9 200.8-9.38 198.87-6.85 198.15-4.9 197.42-2.95 197.42-1.7 197.42-0.45 198.5-0.45 199.57-0.45 201.52-2L201.52-2Q204.67-4.6 208.62-11.65L208.62-11.65Q208.82-12 209.35-12 209.87-12 210.8-11.73 211.72-11.45 211.72-11L211.72-11Q211.72-10.85 211.62-10.7L211.62-10.7Q209.52-7.3 208.97-3L208.97-3Q208.77-1.55 209.47-0.65L209.47-0.65Q210.12 0.25 212.12-0.85L212.12-0.85Q215.22-2.4 217.8-5.7 220.37-9 220.97-11.65L220.97-11.65Q221.17-12.2 221.17-12.85L221.17-12.85Q221.17-15.65 219.57-16.25L219.57-16.25Q219.12-16.45 218.57-16.38 218.02-16.3 217.92-16.43 217.82-16.55 217.87-16.7L217.87-16.7Q217.97-17.15 219.92-17.15L219.92-17.15Q223.17-17.15 223.17-13.8 223.17-10.45 219.37-5.75L219.37-5.75Q216.97-2.9 213.72-0.5L213.72-0.5Q211.92 0.75 209.97 0.75L209.97 0.75Q207.42 0.75 206.82-1.15L206.82-1.15Q206.47-2.05 206.47-4 206.47-5.95 206.97-7.2L206.97-7.2Q205.62-4.5 204.02-2.65 202.42-0.8 201.3-0.13 200.17 0.55 199.02 0.55L199.02 0.55Q197.02 0.55 196.22-0.53 195.42-1.6 195.42-2.85L195.42-2.85Q195.42-4.5 196.15-6.43 196.87-8.35 197.6-9.47 198.32-10.6 199.5-12.18 200.67-13.75 201.02-13.9L201.02-13.9Q201.77-14.1 202.45-14.1 203.12-14.1 203.62-13.9 204.12-13.7 204.15-13.4 204.17-13.1 203.45-12.5ZM233.62-5.5L233.62-5.5Q234.52-7.35 234.52-8.35 234.52-9.35 234.3-9.93 234.07-10.5 234.5-10.9 234.92-11.3 235.57-11.2L235.57-11.2Q236.57-10.95 236.57-8.95 236.57-6.95 234.22-3.7L234.22-3.7Q234.27-2.35 235.62-2.35 236.97-2.35 239.72-5.25L239.72-5.25Q241.02-6.75 241.35-7.2 241.67-7.65 241.92-7.53 242.17-7.4 242.17-7.3L242.17-7.3Q242.17-6.8 240.37-4.7L240.37-4.7Q237.52-1.2 235.32-1.2L235.32-1.2Q233.87-1.2 233.27-2.45L233.27-2.45Q232.27-1.4 231.32-0.5L231.32-0.5Q229.37 1.15 226.97 1.15L226.97 1.15Q225.62 1.15 224.72 0.5L224.72 0.5Q222.97-0.55 222.97-3.25L222.97-3.25Q222.97-6.2 224.97-9.25L224.97-9.25Q226.12-11.05 227.67-12.4L227.67-12.4Q230.12-14.55 232.32-14.55L232.32-14.55Q232.87-14.55 233.37-14.4L233.37-14.4Q234.87-13.9 234.87-12.5L234.87-12.5Q234.87-11.35 234.27-11.35L234.27-11.35Q234.02-11.45 234.02-12.1L234.02-12.1Q234.02-13 233.02-13L233.02-13Q231.27-13 228.52-9.8 225.77-6.6 225.22-3.35L225.22-3.35Q225.12-2.8 225.12-2.13 225.12-1.45 225.57-0.58 226.02 0.3 227.25 0.3 228.47 0.3 229.92-0.8 231.37-1.9 232.52-3.6L232.52-3.6 232.37-3.9Q232.17-4.7 232.57-5.2 232.97-5.7 233.62-5.5ZM247.42 1.25L247.42 1.25Q244.87 1.25 244.87-1.83 244.87-4.9 249.27-9.4L249.27-9.4Q249.62-9.75 249.77-9.95L249.77-9.95 250.12-10.45Q250.82-11.4 250.77-11.65L250.77-11.65 250.62-12.1Q250.42-12.7 248.97-12.98 247.52-13.25 246.62-13.25L246.62-13.25Q242.12-6.9 241.42-6 240.72-5.1 240.47-5.25 240.22-5.4 240.22-5.6 240.22-5.8 240.52-6.2L240.52-6.2Q243.22-9.5 245.17-13.25L245.17-13.25Q244.57-13.35 244.27-13.68 243.97-14 244.22-14.78 244.47-15.55 245.74-16.85 247.02-18.15 247.97-18.6 248.92-19.05 249.17-19.15 249.42-19.25 249.72-19.25L249.72-19.25Q250.32-19.25 249.32-17.45L249.32-17.45 247.37-14.35Q249.62-14.2 251.22-14.2L251.22-14.2 252.97-14.25Q253.82-14.25 254.22-14.03 254.62-13.8 254.42-13.25L254.42-13.25Q254.07-12.3 252.67-10.7L252.67-10.7Q249.67-7.2 248.17-3.25L248.17-3.25Q247.82-2.3 247.82-1.6L247.82-1.6Q247.82-0.15 248.87-0.15L248.87-0.15Q249.22-0.15 250.19-0.7 251.17-1.25 253.47-3.33 255.77-5.4 257.17-7.4L257.17-7.4Q257.37-7.65 257.64-7.53 257.92-7.4 257.92-7.28 257.92-7.15 257.82-7L257.82-7Q257.07-5.65 255.12-3.55 253.17-1.45 251.32-0.15L251.32-0.15Q249.52 1.25 247.42 1.25ZM263.17 1.25L263.17 1.25Q260.62 1.25 260.62-1.83 260.62-4.9 265.02-9.4L265.02-9.4Q265.37-9.75 265.52-9.95L265.52-9.95 265.87-10.45Q266.57-11.4 266.52-11.65L266.52-11.65 266.37-12.1Q266.17-12.7 264.72-12.98 263.27-13.25 262.37-13.25L262.37-13.25Q257.87-6.9 257.17-6 256.47-5.1 256.22-5.25 255.97-5.4 255.97-5.6 255.97-5.8 256.27-6.2L256.27-6.2Q258.97-9.5 260.92-13.25L260.92-13.25Q260.32-13.35 260.02-13.68 259.72-14 259.97-14.78 260.22-15.55 261.49-16.85 262.77-18.15 263.72-18.6 264.67-19.05 264.92-19.15 265.17-19.25 265.47-19.25L265.47-19.25Q266.07-19.25 265.07-17.45L265.07-17.45 263.12-14.35Q265.37-14.2 266.97-14.2L266.97-14.2 268.72-14.25Q269.57-14.25 269.97-14.03 270.37-13.8 270.17-13.25L270.17-13.25Q269.82-12.3 268.42-10.7L268.42-10.7Q265.42-7.2 263.92-3.25L263.92-3.25Q263.57-2.3 263.57-1.6L263.57-1.6Q263.57-0.15 264.62-0.15L264.62-0.15Q264.97-0.15 265.94-0.7 266.92-1.25 269.22-3.33 271.52-5.4 272.92-7.4L272.92-7.4Q273.12-7.65 273.39-7.53 273.67-7.4 273.67-7.28 273.67-7.15 273.57-7L273.57-7Q272.82-5.65 270.87-3.55 268.92-1.45 267.07-0.15L267.07-0.15Q265.27 1.25 263.17 1.25ZM270.96 19.05L270.96 19.05Q270.56 19.05 269.96 18.9L269.96 18.9Q267.41 18.25 267.41 16.23 267.41 14.2 270.04 11.15 272.66 8.1 281.11 2.5L281.11 2.5Q285.81-7.1 287.06-10.95L287.06-10.95Q286.46-10.25 284.71-7.93 282.96-5.6 281.61-3.98 280.26-2.35 278.36-0.9 276.46 0.55 274.86 0.55 273.26 0.55 272.39-0.18 271.51-0.9 271.41-1.7 271.31-2.5 271.31-3.05L271.31-3.05Q271.31-4.9 272.31-6.75L272.31-6.75Q273.81-9.8 276.36-12L276.36-12Q277.31-12.9 278.04-12.9 278.76-12.9 279.36-12.45L279.36-12.45Q280.01-11.75 279.76-11.25L279.76-11.25Q277.86-10.15 275.41-7L275.41-7Q274.11-5.3 273.61-2.7L273.61-2.7Q273.56-2.35 273.56-1.83 273.56-1.3 273.99-0.98 274.41-0.65 274.86-0.65L274.86-0.65Q276.41-0.65 278.11-2.3 279.81-3.95 281.36-5.78 282.91-7.6 284.89-10.15 286.86-12.7 287.49-13.5 288.11-14.3 288.76-14.3L288.76-14.3Q289.56-14.3 290.41-13.85 291.26-13.4 291.14-13.15 291.01-12.9 288.59-7.48 286.16-2.05 285.06 0.3L285.06 0.3Q286.26-0.35 289.14-2.78 292.01-5.2 294.01-7.7L294.01-7.7Q294.51-8.3 294.66-7.8L294.66-7.8Q294.71-7.7 294.71-7.48 294.71-7.25 294.41-6.85L294.41-6.85Q292.86-4.8 289.46-1.7 286.06 1.4 284.06 2.5L284.06 2.5Q279.81 11.25 278.36 13.5L278.36 13.5Q274.61 19.05 270.96 19.05ZM280.16 4.4L280.16 4.4Q274.16 8.9 271.59 11.5 269.01 14.1 269.01 15.98 269.01 17.85 270.31 17.85L270.31 17.85Q271.31 17.85 272.61 16.82 273.91 15.8 275.11 14.1 276.31 12.4 276.94 11.18 277.56 9.95 278.66 7.58 279.76 5.2 280.16 4.4ZM321.41-25.5L321.41-25.5Q322.01-26.6 322.01-27.2L322.01-27.2Q322.01-28.25 321.16-28.25L321.16-28.25Q320.46-28.25 319.41-27.45L319.41-27.45Q315.41-24.35 311.66-17.65L311.66-17.65Q308.66-12.25 307.26-8.4L307.26-8.4Q310.71-10.75 314.98-16.05 319.26-21.35 321.41-25.5ZM306.51-6.4L306.51-6.4Q305.91-4.7 305.86-4.13 305.81-3.55 305.81-2.58 305.81-1.6 306.31-0.8L306.31-0.8Q307.16 0.55 309.16-0.6L309.16-0.6Q310.66-1.4 312.96-3.53 315.26-5.65 316.51-7.4L316.51-7.4Q316.61-7.55 316.81-7.55L316.81-7.55Q317.26-7.55 317.06-6.9L317.06-6.9Q316.31-5.55 314.28-3.45 312.26-1.35 310.61-0.13 308.96 1.1 307.31 1.1L307.31 1.1Q303.51 1.1 303.51-2.6L303.51-2.6Q303.51-2.75 303.51-2.9L303.51-2.9Q303.71-6.4 307.06-13.48 310.41-20.55 313.11-24.15L313.11-24.15 314.66-26.1Q315.21-26.75 316.26-27.7L316.26-27.7Q318.26-29.6 320.38-29.6 322.51-29.6 323.26-28.3L323.26-28.3Q323.51-27.85 323.51-27 323.51-26.15 322.76-24.6L322.76-24.6Q317.61-15.65 306.51-6.4ZM327.36-14.55L327.36-14.55Q330.06-14.55 330.06-11.95L330.06-11.95Q330.06-10.6 329.31-9.75L329.31-9.75Q328.06-7.9 325.26-6.53 322.46-5.15 320.51-5L320.51-5Q319.81-4.95 319.76-5.4L319.76-5.4Q319.71-5.6 319.88-5.65 320.06-5.7 320.16-5.7L320.16-5.7Q321.31-5.8 323.11-6.8L323.11-6.8Q326.46-8.6 328.01-10.5L328.01-10.5Q328.66-11.4 328.66-12.23 328.66-13.05 327.86-13.05L327.86-13.05Q327.21-13.05 326.11-12.5L326.11-12.5Q323.76-11.4 321.16-8.68 318.56-5.95 317.76-3.35L317.76-3.35Q317.51-2.55 317.51-1.78 317.51-1 318.16-0.3 318.81 0.4 320.16 0.4L320.16 0.4Q321.66 0.4 323.61-0.4L323.61-0.4Q329.26-2.7 332.31-7.35L332.31-7.35Q332.61-7.75 332.86-7.5L332.86-7.5Q333.06-7.4 333.06-7.25 333.06-7.1 332.91-6.9L332.91-6.9Q331.41-4.4 329.11-2.45L329.11-2.45Q324.66 1.35 320.46 1.35L320.46 1.35Q316.86 1.35 315.41-0.8L315.41-0.8Q314.86-1.65 314.86-2.85 314.86-4.05 315.51-5.7L315.51-5.7Q316.76-8.55 320.86-11.55 324.96-14.55 327.36-14.55ZM332.25 0.5L332.25 0.5Q331.6 1.25 331.98 1.7 332.35 2.15 332.83 2.15 333.3 2.15 333.8 2L333.8 2Q335.95 1.35 337.98-0.58 340-2.5 340-4.5L340-4.5Q340-5.6 337.55-6.9L337.55-6.9Q336.4-7.5 336.25-7.6L336.25-7.6Q334.9-8.5 334.55-9.4L334.55-9.4Q333.85-8.2 332.3-5.95L332.3-5.95Q331.95-5.55 331.65-5.78 331.35-6 331.6-6.4L331.6-6.4Q333.65-9.2 334.3-11.1L334.3-11.1Q334.65-13.85 338.3-16.05 341.95-18.25 344.95-18.25L344.95-18.25Q346.85-18.25 347.63-17.57 348.4-16.9 348.4-16.25 348.4-15.6 348.03-14.75 347.65-13.9 346.5-13.15L346.5-13.15Q346.2-12.95 346-13.25L346-13.25Q345.9-13.55 346.43-14.08 346.95-14.6 347.1-15.5 347.25-16.4 346.3-16.6L346.3-16.6Q346.15-16.6 346-16.6L346-16.6Q344.05-16.6 341.13-15.15 338.2-13.7 336.55-11.4L336.55-11.4Q335.9-10.55 335.9-9.68 335.9-8.8 337.1-8.1L337.1-8.1Q337.6-7.8 338.8-7.15 340-6.5 340.5-6.2 341-5.9 341.7-5.25 342.4-4.6 342.45-4.05L342.45-4.05Q342.7-2.55 341.05-0.75L341.05-0.75Q338.7 1.85 334.05 2.9L334.05 2.9Q333 3.15 331.93 3.15 330.85 3.15 330.45 2.35L330.45 2.35Q330.3 2.15 330.3 1.73 330.3 1.3 331.1 0.35L331.1 0.35Q331.85-0.4 333.5-1.1L333.5-1.1Q333.65-1.15 333.75-1.05 333.85-0.95 333.8-0.8 333.75-0.65 333.28-0.45 332.8-0.25 332.25 0.5ZM347.05 0.5L347.05 0.5Q346.4 1.25 346.78 1.7 347.15 2.15 347.63 2.15 348.1 2.15 348.6 2L348.6 2Q350.75 1.35 352.78-0.58 354.8-2.5 354.8-4.5L354.8-4.5Q354.8-5.6 352.35-6.9L352.35-6.9Q351.2-7.5 351.05-7.6L351.05-7.6Q349.7-8.5 349.35-9.4L349.35-9.4Q348.65-8.2 347.1-5.95L347.1-5.95Q346.75-5.55 346.45-5.78 346.15-6 346.4-6.4L346.4-6.4Q348.45-9.2 349.1-11.1L349.1-11.1Q349.45-13.85 353.1-16.05 356.75-18.25 359.75-18.25L359.75-18.25Q361.65-18.25 362.43-17.57 363.2-16.9 363.2-16.25 363.2-15.6 362.83-14.75 362.45-13.9 361.3-13.15L361.3-13.15Q361-12.95 360.8-13.25L360.8-13.25Q360.7-13.55 361.23-14.08 361.75-14.6 361.9-15.5 362.05-16.4 361.1-16.6L361.1-16.6Q360.95-16.6 360.8-16.6L360.8-16.6Q358.85-16.6 355.93-15.15 353-13.7 351.35-11.4L351.35-11.4Q350.7-10.55 350.7-9.68 350.7-8.8 351.9-8.1L351.9-8.1Q352.4-7.8 353.6-7.15 354.8-6.5 355.3-6.2 355.8-5.9 356.5-5.25 357.2-4.6 357.25-4.05L357.25-4.05Q357.5-2.55 355.85-0.75L355.85-0.75Q353.5 1.85 348.85 2.9L348.85 2.9Q347.8 3.15 346.73 3.15 345.65 3.15 345.25 2.35L345.25 2.35Q345.1 2.15 345.1 1.73 345.1 1.3 345.9 0.35L345.9 0.35Q346.65-0.4 348.3-1.1L348.3-1.1Q348.45-1.15 348.55-1.05 348.65-0.95 348.6-0.8 348.55-0.65 348.08-0.45 347.6-0.25 347.05 0.5Z" opacity="1" transform="matrix(1,0,0,1,0,0)" fill="#000000" class="undefined-text-1" data-fill-palette-color="secondary" id="text-1"></path></svg></g></svg></g></svg></g></svg></g><g transform="matrix(1,0,0,1,30.570482054577383,0)"><svg viewBox="0 0 334.3790358908452 334.3790358908452" height="334.3790358908452" width="334.3790358908452"><g><svg></svg></g><g id="icon-0"><svg viewBox="0 0 334.3790358908452 334.3790358908452" height="334.3790358908452" width="334.3790358908452"><g><path d="M0 167.19c0-92.336 74.853-167.19 167.19-167.19 92.336 0 167.19 74.853 167.189 167.19 0 92.336-74.853 167.19-167.189 167.189-92.336 0-167.19-74.853-167.19-167.189zM167.19 325.977c87.696 0 158.787-71.091 158.787-158.787 0-87.696-71.091-158.787-158.787-158.788-87.696 0-158.787 71.091-158.788 158.788 0 87.696 71.091 158.787 158.788 158.787z" data-fill-palette-color="tertiary" fill="#000000" stroke="transparent"></path></g><g transform="matrix(1,0,0,1,76.51114037795107,77.33924588443446)"><svg viewBox="0 0 181.35675513494309 179.7005441219763" height="179.7005441219763" width="181.35675513494309"><g><svg xmlns="http://www.w3.org/2000/svg" xmlns:xlink="http://www.w3.org/1999/xlink" xml:space="preserve" version="1.1" style="shape-rendering:geometricPrecision;text-rendering:geometricPrecision;image-rendering:optimizeQuality;" viewBox="172.48619074113006 444.88544157574 59655.023881076915 59110.23409667037" x="0" y="0" fill-rule="evenodd" clip-rule="evenodd" height="179.7005441219763" width="181.35675513494309" class="icon-fi-0" data-fill-palette-color="accent" id="fi-0"><g fill="#000000" data-fill-palette-color="accent"><path class="" d="M45053.81 42983c217.46 38.83 362.27 246.6 323.44 464.06-38.83 217.46-246.6 362.27-464.06 323.44-243.22-43.47-443.33-70.26-639.93-96.57-861.09-115.24-1665.8-222.95-2348.66-883.11-552.59-534.23-1474.37-1375.46-2457.31-2001.33-923.46-587.99-1893.51-988.98-2606.8-731.88-181.77 65.51-308.82 144.86-390.64 233.81-110.38 119.99-135.02 278.44-103.1 452.54 42.59 232.34 175.87 491.64 353.76 744.65 347.7 494.5 843.38 934.22 1194.08 1127.65 22.06 12.12 42.51 26.03 61.3 41.43 586.71 448.32 1223.99 762.68 1839.98 1066.5 941.56 464.4 1836.88 906.08 2528.76 1768.62 945.03 908.65 1310.05 1831.24 1675.24 2754.53 292.01 738.28 584.23 1477.08 1191.93 2169.83 583.38 665 1211.74 836.63 1998.23 1051.42 1400.08 382.37 3247.28 886.87 6154.48 4043.56 156.51 169.94 659.54 755.4 1287.18 1504.64 469.48 560.44 1018.39 1224.33 1556.16 1889.34 138.07 171.72 110.78 422.87-60.94 560.94-171.72 138.07-422.87 110.78-560.94-60.94-515.66-637.68-1065.22-1301.99-1546.78-1876.84-621.92-742.42-1114.12-1315.76-1262.18-1476.52-2753.55-2989.85-4473.07-3459.48-5776.36-3815.42-915.72-250.08-1647.33-449.91-2388.85-1295.18-702.94-801.32-1019.43-1601.48-1335.69-2401.07-335-846.98-669.83-1693.3-1493.67-2481.89-16.72-14.93-32.41-31.46-46.83-49.6-258.43-326.09-563.74-587.35-898.85-814.34-639.26 405.11-1177.59 623.34-1677.69 737.61-510.62 116.67-968.23 122.25-1449.34 107.13-391.75-12.29-620.68-167.7-753.66-400.61-114.87-201.22-127.75-427.17-110.67-652.6 20.42-269.25 253.94-399.35 603.51-594.02 238.02-132.56 559.9-311.82 876.8-547.25-276.3-160.59-551.55-338.3-822.08-544.2-435.53-248.04-1028.4-773.32-1436.24-1353.34-237.99-338.49-419.68-703.88-485.02-1060.27-76.01-414.62-1.63-809.04 299.98-1136.92 4.61-5.01 9.29-10 14-14.97-9.16 7.47-18.25 14.99-27.18 22.65-101.31 86.92-215.98 190.43-324.54 288.41-709.59 640.52-1180.74 1065.79-2468.72 859.27-285.34-45.75-499.5-149.8-645.57-288.75-97.46-92.71-165.32-200.46-204.87-318.27-39.72-118.34-48.82-242.12-28.84-366.75 29.99-187.11 125.75-372.39 280.64-535.21 748.4-786.74 1619.23-1423.76 2563.57-1945.19 935.37-516.47 1942.97-919.45 2974.57-1242.35 106.92-33.46 19.52-6.52 132.89-42.37 40.49-12.81 79.38-25.11 117.14-36.93-141.53-92.4-277.58-187.9-405.34-287.54-695.99 425.28-1414.96 628.69-2084.85 818.18-661.85 187.22-1270.46 359.39-1678.78 716.35-140.45 122.78-248.39 221.68-350.65 315.36-753.68 690.5-1254.07 1148.95-2567.56 987.76-295.13-36.22-516.4-138.39-667.21-281.37-92.36-87.55-157.59-189.72-196.89-302.34-39.44-112.95-51.21-230.06-36.78-347.74 25.27-205.92 131.4-416.18 308.77-603.26 803.35-847.29 1728.12-1544.96 2724.87-2126.16 987.36-575.72 2046.47-1036.9 3128.18-1416.13 226.22-79.29 454.29-153.19 684.15-216.66 24.65-6.81 49.33-13.49 74.03-20.05-464.16-421.11-864.53-829.94-1153.64-1217.14-4.57-6.12-8.91-12.32-13.07-18.61-75.64-32.59-141.31-62.44-189.5-87.42-391.56-202.97-765.23-414.76-1117.09-668.03-360.05-259.18-690.03-556.78-981.11-923.74-362.36-456.83-596.9-932.01-687.8-1391.72-94.99-480.44-34.43-943.4 198.05-1354.87 13.16-23.29 25.79-43.27 37.86-59.98 135.84-188.18 368.12-292.67 606.08-318.46 198.13-21.46 416.84 11.85 586.31 97.5 11.01 4.99 21.89 10.5 32.61 16.58 17.78 10.05 36.12 21.59 54.99 34.65 6.29 4.13 12.51 8.45 18.63 12.99l1783.63 1325.67 3608.07 1911.54c7.33 3.98 14.65 8.09 21.87 12.5 1904.57 1164.56 2723.18 2027.23 3603.98 3234.87 1018.14 215.89 1999.99 480.55 2795.82 819.56 856.53 364.88 1511.6 824.7 1802.34 1415.72 794.52 1615.11 1398.65 2911.23 1917.82 4025.08 2238.05 4801.63 2898.29 6218.11 7980.69 10244.32 101.59 80.49 300.78 250.3 570.68 484.69 350.71 304.57 685.72 597.85 1017.31 889.49 165.68 145.83 181.77 398.38 35.94 564.06-145.83 165.68-398.38 181.77-564.06 35.94-458-402.82-818.68-719.29-1011.07-886.37-273.2-237.26-464.64-401.08-542.56-462.81-5236.56-4148.33-5914.35-5602.48-8211.93-10531.82-533.32-1144.21-1153.91-2475.64-1908.44-4009.46-196.72-399.89-709.65-740.71-1399.22-1034.46-522.47-222.57-1138.24-412.37-1795.65-577.09l9.48 13.69c290.79 419.94 612.52 884.6 972.34 1379.54 3.71 4.34 7.37 8.74 10.93 13.27 119.03 151.22 242.61 274.71 404.82 374.57 172.55 106.22 395.01 192.3 706.76 264.36 214.87 49.18 349.18 263.25 300 478.12-49.18 214.87-263.25 349.18-478.12 300-405.38-93.71-704.39-211.63-947.4-361.22-253.32-155.94-439.5-340.14-614.18-562.07-9.86-12.55-18.83-25.51-26.96-38.8-392.48-539.73-703.4-988.79-984.45-1394.65-1169.39-1688.82-1816.68-2623.51-4049.8-3990.69l-3028.86-1604.69c-525.83 257.29-962.05 253.56-1439.32 8.61-395.78-203.13-801.62-574.79-1315.34-1106.15 4.22 60.07 12.48 121.18 24.73 183.15 66.15 334.56 246.34 692.34 528.42 1047.96 243.87 307.45 520.24 556.71 821.73 773.74 309.68 222.91 652.82 416.71 1017.09 605.53 76.12 39.45 283.51 123.69 487.01 206.33 195.59 79.43 387.79 157.5 499.2 212.76 197.61 97.51 278.76 336.76 181.25 534.37-16.54 33.52-37.17 63.7-60.98 90.21 670.62 664.91 1588.67 1394.63 2505.31 2123.2 399.12 317.23 797.97 634.24 1219.94 982.58 1163.67 960.64 1224.9 1998.15 1302.05 3305.81l9.93 166.79c65.87 1086 580.62 2113.4 1087.89 3125.92 122.28 244.07 244.16 487.34 352.61 714.15 189.67 34.02 385.72 60.28 585.38 87 236.12 31.6 476.51 63.78 677.43 99.69z m-44101.44-40111.19c-59.22-57.6-60.53-152.31-2.93-211.53 57.6-59.22 152.31-60.53 211.53-2.93l1581.97 1534.92c59.22 57.6 60.53 152.31 2.93 211.53-57.6 59.22-152.31 60.53-211.53 2.93l-1581.97-1534.92z m349.89 956.18c-59.22-57.6-60.53-152.31-2.93-211.53 57.6-59.22 152.31-60.53 211.53-2.93l1581.97 1534.92c59.22 57.6 60.53 152.31 2.93 211.53-57.6 59.22-152.31 60.53-211.53 2.93l-1581.97-1534.92z m52997.32 50255.44c-52.74-63.42-44.09-157.61 19.33-210.35 63.42-52.74 157.61-44.09 210.35 19.33l1411.11 1693.34c52.74 63.42 44.09 157.61-19.33 210.35-63.42 52.74-157.61 44.09-210.35-19.33l-1411.11-1693.34z m247 987.77c-52.74-63.42-44.09-157.61 19.33-210.35 63.42-52.74 157.61-44.09 210.35 19.33l1411.11 1693.34c52.74 63.42 44.09 157.61-19.33 210.35-63.42 52.74-157.61 44.09-210.35-19.33l-1411.11-1693.34z m-12454.3-32794.57l564.22 567.14-567.13 564.22-564.22-567.14 567.13-564.22z m11342.79-11284.55l564.22 567.14-567.14 564.23-564.22-567.14 567.14-564.23z m-2268.56 2256.92l564.22 567.14-567.14 564.23-564.22-567.14 567.14-564.23z m-2268.56 2256.92l564.22 567.14-567.14 564.23-564.22-567.14 567.14-564.23z m-2268.56 2256.91l564.22 567.14-567.14 564.22-564.22-567.14 567.14-564.22z m-2268.56 2256.9l564.22 567.14-567.14 564.22-564.22-567.14 567.14-564.22z m-38124.9 30128.42l564.22 567.14-567.13 564.22-564.22-567.14 567.13-564.22z m13611.34-13541.47l564.22 567.14-567.14 564.23-564.22-567.14 567.14-564.23z m-2268.56 2256.92l564.22 567.14-567.14 564.23-564.22-567.14 567.14-564.23z m-2268.56 2256.92l564.22 567.14-567.14 564.23-564.22-567.14 567.14-564.23z m-2268.56 2256.92l564.22 567.14-567.14 564.23-564.22-567.14 567.14-564.23z m-2268.56 2256.91l564.22 567.14-567.14 564.22-564.22-567.14 567.14-564.22z m-2268.56 2256.9l564.22 567.14-567.13 564.22-564.22-567.14 567.13-564.22z m-5463.16 9168.13l561.3 570.04-570.03 561.3-561.3-570.04 570.03-561.3z m54471.54-54233.53l566.52 564.86-564.86 566.51-566.52-564.86 564.86-566.51z m-2259.44 2266.04l566.52 564.86-564.86 566.51-566.52-564.86 564.86-566.51z m-2259.44 2266.04l566.52 564.86-564.86 566.51-566.52-564.86 564.86-566.51z m-2259.44 2266.04l566.52 564.86-564.86 566.51-566.52-564.86 564.86-566.51z m-2259.44 2266.04l566.52 564.86-564.86 566.51-566.52-564.86 564.86-566.51z m-2259.44 2266.04l566.52 564.86-564.86 566.51-566.52-564.86 564.86-566.51z m-2259.44 2266.04l566.52 564.86-564.86 566.51-566.52-564.86 564.86-566.51z m-2259.44 2266.04l566.52 564.86-564.86 566.51-566.52-564.86 564.86-566.51z m-2259.44 2266.04l566.52 564.86-564.85 566.51-566.52-564.86 564.85-566.51z m-2259.42 2266.04l566.52 564.86-564.85 566.51-566.52-564.86 564.85-566.51z m-9055 9141.96l561.3 570.04-570.04 561.3-561.3-570.04 570.04-561.3z m-2280.16 2245.21l561.3 570.04-570.04 561.3-561.3-570.04 570.04-561.3z m-2280.16 2245.2l561.3 570.04-570.04 561.3-561.3-570.04 570.04-561.3z m-2280.16 2245.2l561.3 570.04-570.04 561.3-561.3-570.04 570.04-561.3z m-2280.15 2245.2l561.3 570.04-570.03 561.3-561.3-570.04 570.03-561.3z m-2280.14 2245.2l561.3 570.04-570.03 561.3-561.3-570.04 570.03-561.3z m-2280.14 2245.2l561.3 570.04-570.03 561.3-561.3-570.04 570.03-561.3z m-2280.14 2245.2l561.3 570.04-570.03 561.3-561.3-570.04 570.03-561.3z m-2280.14 2245.2l561.3 570.04-570.03 561.3-561.3-570.04 570.03-561.3z m-2280.14 2245.2l561.3 570.04-570.03 561.3-561.3-570.04 570.03-561.3z m-2280.14 2245.2l561.3 570.04-570.03 561.3-561.3-570.04 570.03-561.3z m13115.6-29958.8c-2.38-4.83-4.63-9.74-6.72-14.78-38.94-93.93-165.44-332.99-293.89-569.55-128.94-237.48-265.76-482.82-314.88-570.91-157.75-282.88-333.03-460.48-510.92-548.28-98.5-48.61-198.43-69.05-296.5-64.22-100.42 4.95-201.88 36.5-300.63 91.56-197.8 110.29-381.97 311.75-528.87 584.01 311.52 295.28 744.88 610.71 1196.28 831.65 319.26 156.25 639.61 260.78 915.98 267.32 48.29 1.14 95.13-1.02 140.15-6.8z m-2606.66-1473.99c179.55-285.02 400.24-503.51 640.94-637.73 165.3-92.18 340.42-145.24 519.37-154.06 181.31-8.94 363.65 27.64 540.64 115 265 130.79 515.24 375.85 725.76 753.36 47.54 85.25 180 322.77 316.84 574.81 116.93 215.34 232.82 433.75 291.87 559.5 69.65-108.26 124.64-254.47 160.93-444.93 164.14-861.41-461.78-1887.32-1290.98-2823.93-877.79-991.5-1981.04-1871.92-2675.36-2393.89-847.19-636.91-1107.4-1506.63-1385.82-2437.3-71.54-239.13-144.37-482.55-220.12-700.49-72.48-207.96 37.35-435.33 245.31-507.81 207.96-72.48 435.33 37.35 507.81 245.31 91.64 263.64 162.77 501.37 232.62 734.87 68.24 228.09 135.21 451.93 210.72 666.45 304.76 89.19 593.81 180.77 883.86 272.65 1227.42 388.85 2472.89 783.41 3703.97 663.53l186.34-18.51c1460.59-144.66 2619.43-259.44 3880.46 853.36 417.41 368.35 864.39 777.77 1311.67 1187.47 992.56 909.16 1986.71 1819.73 2861.49 2453.9 27.11-43.71 63.17-82.87 107.7-114.55 179.49-127.71 428.54-85.74 556.25 93.75 81.38 114.45 201.92 313.96 324.55 516.97 129.56 214.47 261.61 433.03 318.06 509.51 275.72 373.52 554.29 723.6 862.51 1034.2 299.36 301.66 630.05 568.82 1019.67 788.26 456.37 257.04 896.08 397.53 1288.06 412.26 111.98 4.21 220.2-2.01 323.84-18.86-732.66-508.74-1248.83-910.6-1555-1328.91-358.38-489.66-434.1-977.3-228.1-1618.8l-2325.44-3091.87c-1934.2-2265.75-3095.69-2823.96-5196.27-3833.4-546.63-262.68-1152.36-553.77-1763.46-865.49l0.47-0.93-12.97-6.88c-273.59-152.75-507.73-324.53-722.44-574.61-208.06-242.32-390.14-550.09-563.02-976.95-82.84-204.51 15.8-437.47 220.31-520.31 204.51-82.84 437.47 15.8 520.31 220.31 139.36 344.1 277.49 582.13 428.66 758.19 141.34 164.63 301.51 282.36 490.87 389.29l0.31-0.61c703.96 359.09 1251.06 622.01 1744.72 859.23l140.5 67.54c-317.23-756.6-657.21-1458.73-1018.86-2035.11-456.71-727.86-937.11-1247.94-1430.98-1400.45-1855.37-572.95-3447.15-1028.11-4815.11-1419.27-5902.38-1687.74-7643.57-2185.63-13191.08-7283.5-99.22-91.17-354.55-308.1-717.7-612.05-345-288.75-821.94-684.39-1369.83-1137.69-169.99-140.66-193.78-392.51-53.12-562.5 140.66-169.99 392.51-193.78 562.5-53.12 516.16 427.04 985.21 816.29 1372.95 1140.81 369.57 309.32 633.81 534.13 745.82 637.05 5406.56 4968.34 7106.54 5454.45 12869.22 7102.24 1338.92 382.85 2896.9 828.35 4830.73 1425.53 698.54 215.71 1318.92 857.13 1871.6 1737.95 522.05 832.01 992.14 1883.02 1413.18 2981.24l1.73 4.71c1507.19 769.08 2613.72 1525.84 4249.95 3443.2 10 11.68 19.17 23.78 27.58 36.22l2761.01 3670.99 1801.7 1761.03 8.67 8.72c20.59 20.95 38.93 41.59 55.07 61.87 132.63 166.74 213.34 410.71 224.85 642.27 12.74 255.99-57.78 518.26-231.86 691.47-18.99 18.93-37.45 35.55-55.34 49.78-406.59 323.4-901.35 468.96-1444.09 448.55-522.35-19.62-1085.85-194.2-1650.56-512.26-457.95-257.93-845.19-570.48-1194.67-922.64-340.6-343.23-641.87-721.2-937.51-1121.7-38.81-52.58-86.65-125.15-139.37-208.67-11.45-4.74-22.79-10.01-33.97-15.9-404.6-212.55-841.12-510.85-1298.01-864.13-79.02 3879.57-1101.21 6050.3-2132.68 6991.32-507.35 462.86-1036.71 653.68-1492.02 621.38-510.99-36.23-918.16-335.18-1117.49-839.6-247.15-625.43-145.71-1592.74 571.09-2734.19 331.78-528.34 416.68-1244.2 508.98-2022.7 93.39-787.73 193.79-1633.97 553.74-2491.04-203.94-187.4-400.52-398.65-592.11-621.91-26.73 526.85-130.72 1107.8-288.8 1704.52-465.21 1756-1397.09 3699.15-2157.99 4707.01-108 143.05-239.59 248.03-385.41 310.76-141.59 60.91-292.8 81.38-446.55 58.26-143.2-21.52-284.54-80.97-416.98-180.94-175.93-132.83-337.26-340.62-461.47-629.38-396.26-921.09-379.18-1469.43-175.25-1976.99-116.4 21.85-237.56 30.58-362.22 27.63-399.84-9.47-832.54-145.63-1247.22-348.58-713.11-349.03-1397.04-910.86-1746.51-1347.13-297.95-284.07-561.34-581.48-804.34-884.01-226.9 420.15-381.68 843.47-494.44 1151.95-149.68 409.46-249.68 683.01-519.28 747.08-240.15 57.06-485.26 82.18-718.77-6-267-100.84-468.9-317.07-548.1-731.07-101.32-529.51-175.61-1036.79-136.28-1623.09 38.91-580.06 189.41-1223.44 535.74-2018.18-321.54-346.48-677.93-652.5-1103.57-891.99-21.56-12.09-41.56-25.89-59.94-41.11-1038.05-788.09-2045.25-1012.35-3053.19-1236.67-946.72-210.7-1894.11-421.56-2901.47-1056.55-1062.69-669.89-1412.45-1444.22-1850.22-2413.38-504.5-1116.91-1137.77-2518.9-3314.42-4327.9-169.13-140.66-192.22-391.81-51.56-560.94 140.66-169.13 391.81-192.22 560.94-51.56 2321.2 1929.14 2995.77 3422.54 3533.16 4612.28 383.08 848.08 689.14 1525.67 1547.1 2066.5 892.63 562.67 1770.81 758.12 2648.35 953.43 1092.33 243.11 2183.88 486.17 3354.46 1371.91 1075.48 612.8 1725.26 1530.79 2408.51 2496.27 445.91 630.12 907.2 1281.88 1513.3 1861.07z m15063.25-236.26c-25.08 297.52 52.79 549.23 233.05 795.53 299.77 409.56 871.18 830 1704.24 1399.15 11.36-8.23 22.6-16.66 33.71-25.31 0.6-8-0.62-41.86-2.84-86.57-3.72-74.88-22.81-144.97-52.97-182.89-0.79-0.98-0.26-0.59 0.24-0.19l-1817.18-1776.21 0.29-0.3c-14.6-14.23-28.3-29.76-40.91-46.58l-57.63-76.63z m-13691.07-3824.08c222.66-287.43 631.15-814.28-0.44-0.34l0.44 0.34z m-4026.66 1978.42c-196.84 527.09-288.87 969.96-315.83 1371.86-33.38 497.61 33.26 946.9 123.78 1419.97 17.71 92.59 32.37 129.43 44.98 134.19 46.11 17.41 143.82 0.73 253.13-25.24 147.16-34.97-106.78-75.49-46.34-240.84 148.71-406.81 364.5-997.02 723.39-1569.74-98.84-137.12-195.73-274.02-291.93-409.97-163.7-231.32-325.32-459.65-491.18-680.23z m8763.05-959.67c-136.34-172.58-106.96-423.04 65.62-559.38 172.58-136.34 423.04-106.96 559.38 65.62 2.48 3.14 4.86 6.38 7.31 9.54 193.93 242.78 266.38 335.83 338.63 428.64 539.51 693.05 1098.49 1411.1 1667.71 1750.97 188.98 113.04 250.54 357.9 137.5 546.88-101.02 168.88-307.3 235.99-484.9 167.69-259.79 699.77-345.29 1420.54-425.27 2095.14-103.13 869.78-197.98 1669.58-627.74 2353.94-563.68 897.61-666.96 1598.83-502.33 2015.43 80.21 202.99 236.82 322.79 429.99 336.48 248.87 17.65 564.2-110.35 898.26-415.12 943.8-861.03 1878.92-2970.35 1878.38-6890.18 0-47.78 8.42-93.6 23.85-136.06-594.16-504.88-1210.18-1069.11-1825.63-1632.84-430.82-394.63-861.37-788.99-1302.29-1178.09-999.26-881.8-2005.71-782.11-3274.22-656.48l-42.27 4.13c78.71 124.53 155.14 248.4 230.25 370.14 353.09 572.31 674.61 1093.45 1008.07 1311.17 184.67 119.95 237.14 366.9 117.19 551.57-98.85 152.18-283.93 214.56-449.34 164.68-119.94 557.21-107.05 1149.94-94.91 1707.33 17.48 802.14 33.56 1539.73-307.37 2141.47-69.42 122.53-152.47 259.12-231.12 388.48-369.28 607.36-614.45 1010.62-183.72 2011.85 66.4 154.36 138.19 254.53 208.35 307.5 21.98 16.59 40.25 25.69 54.48 27.82 3.68 0.55 7.83-0.16 12.17-2.02 19.34-8.32 40.95-27.73 63.53-57.64 710.2-940.71 1583.61-2768 2023.61-4428.87 321.92-1215.18 414.8-2308.62 26.83-2799.79z m-2470.18 2079.65c-8.33-637.59 13.01-1306.77 230.58-1960.68-236.22-294.31-455.33-649.41-686.29-1023.76-153.18-248.27-312.02-505.73-481.15-752.95-1112.19-43.01-2181.28-381.67-3237.76-716.36l-132.19-41.85c107.41 135.26 231.18 258.88 376.55 368.17 721.7 542.55 1870.21 1459.68 2794.12 2503.27 457.64 516.92 860.59 1066.7 1136.14 1624.16z m13340.56 2625.61l-0.24-0.23 0.24 0.23z m4423.39 15860.99c-133.75-31.82-216.39-166.06-184.57-299.81 31.82-133.75 166.06-216.39 299.81-184.57 470.34 112.8 910.78 266.8 1192.63 510.68 334.09 289.08 456.51 672.04 198.01 1197.59-60.4 123.5-209.51 174.65-333.01 114.25-123.5-60.4-174.65-209.51-114.25-333.01 134.83-274.13 81.38-464.88-76.93-601.87-210.55-182.19-579.12-306.71-981.69-403.26z m-1273.84-11408.66c-17.55-10.34-34.04-21.85-49.42-34.35l-1788.17-1329.03-6.45-3.77c-29.95-12.38-79.65-15.52-133.3-9.71-29.5 3.19-35.08-16.85-41.83-11.58-2.74 5.02-5.43 10.07-8.08 15.13 598.93 633.09 1037.26 1063.47 1425.09 1262.52 199.88 102.59 393.44 140.75 602.16 110.79z m4089.88 15236.87c-191.52-99.86-387.63-196.61-586.01-294.45-123.02-60.67-246.85-121.74-371.13-184.23-444.95 382.81-923.51 649.35-1255.21 834.08-123.57 68.82-182.13-201.71-194.13-43.48-6.93 91.5-8.71 170.98 7.55 199.46 1.82 3.19 20.48-4.53 84.9-2.51 421.73 13.25 819.69 9.09 1246.22-88.37 322.95-73.79 669.91-202.7 1067.81-420.5z m2075.77-3557.56c-74.44 78.97-160.07 170.39-259.84 276.91l-97.1 103.63c273.68 242.8 514.41 469.36 710.13 658.58 73.14 70.71 150.23 132.91 230.82 187.98-202.6-404.43-405.6-811.27-584.01-1227.1z m-965.36-137.35l124.26-132.62c240.5-256.77 401.9-429.1 530.04-557.81-46.33-146.97-87.88-295.47-123.68-445.8-649.47-382.39-1605.57-946.52-2259.08-1464.19-658.57 381.55-1346.43 549.58-1987.47 706.13-53.74 13.12-107.09 26.14-159.99 39.21 833.74-16.37 1752.73 386.12 2612.16 933.34 444.14 282.8 873.14 603.64 1263.76 921.74z m387.83-2147.49l-3.31-55.53c-65.78-1114.92-117.98-1999.51-1011.43-2737.07-359.23-296.55-784.76-634.77-1210.56-973.2-466.26-370.59-932.88-741.48-1371.01-1106.96-203.38 32.5-408.72 79.54-614.84 136.45-211.13 58.3-422.88 126.97-634.15 201.02-1034.84 362.8-2047.51 803.68-2990.68 1353.63-933.77 544.48-1798.36 1196.21-2546.75 1985.54-49.61 52.32-80.31 98.9-90.22 135.56 34.74 23.6 100.15 43.01 201.09 55.39 952.58 116.9 1343.86-241.58 1933.18-781.5 120.47-110.37 247.72-226.96 363.15-327.86 545.7-477.06 1236.69-672.54 1988.16-885.11 562.57-159.13 1162.77-328.95 1722.49-636.95-68.23-158.01-28.26-348.34 110.48-464.43 169.13-141.52 420.98-119.13 562.5 50 372.15 445.5 1072.21 831.42 1747.88 1203.91 131.43 72.45 262.01 144.44 433.93 242.08 191.57 108.73 258.73 352.19 150 543.76-108.73 191.57-352.19 258.73-543.76 150-108.18-61.44-265.74-148.3-424.55-235.84l-43.7-24.09c-9.05 1.71-18.21 3.13-27.5 4.23-337.93 40.24-544 105.42-858.48 204.88-27.87 8.81 65.05-20.55-136.01 42.37-983.64 307.89-1941.98 690.8-2827.69 1179.85-876.74 484.1-1682.22 1072.36-2369.83 1795.19-36.66 38.54-59.74 72.01-68.27 98.11 36.82 30.38 106.39 56.15 213.79 73.37 910.32 145.96 1269.05-177.83 1809.34-665.53 98.73-89.11 202.93-183.17 340.16-300.91 516.26-442.92 1181.68-605.45 1905.33-782.16 521.15-127.26 1076.34-262.88 1590.49-521.88-60.39-153.82-20.57-335.46 112.06-448.95 167.41-143.25 419.26-123.66 562.51 43.75 350.26 410.67 1259.7 988.71 2026.2 1448.88z" fill="#000000" fill-rule="nonzero" data-fill-palette-color="accent"></path></g></svg></g></svg></g></svg></g></svg></g><g></g></svg></g></svg></g></svg></g></svg><rect width="395.52" height="247.2" fill="none" stroke="none" visibility="hidden"></rect></g></svg></g></svg>